<svg version="1.1" id="Layer_1" xmlns="http://www.w3.org/2000/svg" xmlns:xlink="http://www.w3.org/1999/xlink" x="0px" y="0px"
	 width="100%" viewBox="0 0 1974 1016" enable-background="new 0 0 1974 1016" xml:space="preserve">
<path fill="#FFFFFF" opacity="1.000000" stroke="none" 
	d="
M1975.000000,572.000000 
	C1975.000000,720.321777 1975.000000,868.643555 1975.000000,1016.965332 
	C1974.844971,1016.976929 1974.689819,1016.998657 1974.534790,1016.998657 
	C1316.752686,1017.000000 658.970642,1017.000000 1.094296,1017.000000 
	C1.094296,678.422607 1.094296,339.845215 1.094296,1.000000 
	C601.364258,1.000000 1201.728516,1.000000 1802.439453,1.340586 
	C1801.361694,2.447749 1799.836304,3.072413 1798.528198,4.002657 
	C1783.174194,14.920544 1767.428101,25.343842 1752.630249,36.972538 
	C1734.104004,51.531300 1715.796875,66.471397 1698.434692,82.381302 
	C1678.859009,100.319588 1661.141846,120.108185 1645.003052,141.317139 
	C1631.503052,159.058319 1619.390503,177.596542 1608.949341,197.268494 
	C1598.980835,216.049911 1590.767334,235.603714 1585.587891,256.184448 
	C1581.833862,271.102173 1579.047974,286.364655 1577.253540,301.640625 
	C1575.957642,312.672211 1576.360229,324.025055 1577.168701,335.150055 
	C1578.088623,347.806946 1579.774658,360.466187 1582.056519,372.954681 
	C1587.956421,405.243835 1601.300293,434.680511 1618.878662,462.093872 
	C1628.248169,476.705597 1639.004395,490.484497 1649.827148,504.088440 
	C1657.107544,513.239502 1665.186890,521.858765 1673.648071,529.942078 
	C1686.144775,541.880615 1699.159180,553.292786 1712.230103,564.609009 
	C1719.094116,570.551453 1726.547119,575.813354 1733.885620,581.500061 
	C1738.877319,577.256531 1743.504883,573.362061 1748.089478,569.417725 
	C1762.519775,557.002625 1777.585571,545.236938 1791.187988,531.971497 
	C1807.877441,515.695374 1823.923828,498.663757 1839.137207,481.001709 
	C1850.456665,467.860260 1860.321533,453.415039 1870.278442,439.162231 
	C1886.719849,415.627319 1898.477905,389.752411 1906.902466,362.358734 
	C1912.220825,345.065216 1915.518677,327.318298 1916.857910,309.313263 
	C1917.635864,298.854034 1917.387695,288.271393 1916.894287,277.777557 
	C1916.371094,266.652954 1915.742920,255.440613 1913.843018,244.495270 
	C1911.021973,228.242477 1907.899536,211.945435 1903.366821,196.107529 
	C1895.265625,167.799698 1883.971680,140.620941 1870.968750,114.203522 
	C1865.101685,102.283646 1858.965576,90.468391 1852.351440,78.950226 
	C1840.986694,59.159317 1829.166260,39.629822 1817.505371,20.009399 
	C1813.721313,13.642572 1809.838013,7.334781 1806.000000,0.999997 
	C1862.302246,1.000000 1918.604370,1.000000 1975.000000,1.000000 
	C1975.000000,190.030914 1975.000000,379.061859 1974.606934,568.546021 
	C1961.547729,564.683594 1949.031006,559.845032 1936.181396,556.170776 
	C1915.134033,550.152588 1893.630615,546.330383 1871.655273,546.064331 
	C1864.903809,545.982544 1858.067627,546.146912 1851.403931,547.117249 
	C1840.674561,548.679688 1829.856567,550.280945 1819.432495,553.157837 
	C1797.215942,559.289673 1778.870483,572.036987 1764.176514,589.542358 
	C1750.776611,605.505737 1742.392944,624.237366 1736.954224,644.346741 
	C1732.203125,661.914185 1729.857910,679.806335 1729.126221,697.928345 
	C1729.060669,699.553101 1730.446655,702.391602 1731.698364,702.742920 
	C1753.915405,708.978394 1776.396729,714.481445 1799.462402,715.736755 
	C1813.392822,716.494934 1827.527832,715.302368 1841.454956,713.862854 
	C1859.979126,711.948181 1876.770264,704.710938 1892.175659,694.349365 
	C1906.435913,684.757996 1918.247070,672.587952 1928.549927,658.926147 
	C1943.560181,639.021790 1955.170288,617.184570 1965.025024,594.355286 
	C1968.258667,586.864136 1971.669922,579.449585 1975.000000,572.000000 
M158.019287,456.523743 
	C160.782471,460.092163 164.345261,461.307831 168.881119,461.086578 
	C175.697647,460.754089 182.555435,460.740143 189.371002,461.082245 
	C194.818787,461.355652 198.213303,459.085571 201.133316,454.668182 
	C211.282501,439.314667 221.661377,424.111847 232.079926,408.938965 
	C233.293243,407.171967 235.299149,405.949158 236.937592,404.474060 
	C237.291733,404.777283 237.645859,405.080505 238.000000,405.383728 
	C238.000000,407.205078 238.000000,409.026459 238.000000,410.847839 
	C238.000000,452.177612 237.998703,493.507385 238.001160,534.837158 
	C238.001617,542.488098 240.423691,544.999573 247.778870,544.999756 
	C273.443329,545.000427 299.107849,544.970093 324.772186,545.024231 
	C330.168091,545.035583 332.121796,543.559937 332.112427,537.927673 
	C331.955109,443.269379 332.001343,348.610809 331.997833,253.952286 
	C331.997498,244.905289 325.980804,239.003189 316.778381,239.001190 
	C298.279968,238.997192 279.779877,239.148132 261.283905,238.935272 
	C252.506775,238.834274 245.744476,242.679016 241.301025,249.562134 
	C229.129654,268.416138 217.540329,287.645630 205.699112,306.713104 
	C197.885178,319.295593 189.894333,331.771240 182.280609,344.473267 
	C179.834305,348.554443 177.789795,348.058167 175.470367,344.919006 
	C173.152298,341.781708 171.089478,338.447235 169.036636,335.123901 
	C151.597626,306.892303 134.165878,278.656158 116.780014,250.391785 
	C111.837463,242.356613 104.516342,238.996201 95.348984,238.998611 
	C77.350533,239.003326 59.352081,238.997055 41.353630,239.001129 
	C30.868450,239.003510 25.001255,244.880402 25.001053,255.385376 
	C24.999243,349.377289 25.044283,443.369293 24.900229,537.360962 
	C24.890638,543.617981 26.313231,545.031250 32.660950,545.019592 
	C58.325325,544.972473 83.989838,545.001465 109.654297,544.999084 
	C117.365372,544.998352 118.998337,543.398865 118.998795,535.833191 
	C119.001312,494.170105 119.000000,452.506989 119.000000,410.843903 
	C119.000000,409.028412 119.000000,407.212891 119.000000,403.899292 
	C121.287651,405.407043 123.106125,406.016052 123.984924,407.278900 
	C130.495636,416.635193 136.777756,426.150055 143.215881,435.557465 
	C147.910660,442.417450 152.733688,449.189667 158.019287,456.523743 
M1423.000000,651.500000 
	C1423.000000,725.645996 1423.000000,799.792053 1423.000000,873.938049 
	C1423.000000,882.973022 1425.989990,885.995300 1434.979370,885.997742 
	C1459.306030,886.004333 1483.635376,885.788818 1507.957764,886.107849 
	C1517.192993,886.229004 1521.046875,881.877136 1521.025879,873.086304 
	C1520.957031,844.261047 1521.000000,815.435547 1521.000000,786.610107 
	C1521.000000,784.839844 1521.000000,783.069641 1521.000000,781.002502 
	C1524.569702,781.002502 1527.556641,780.841919 1530.509033,781.090637 
	C1531.524658,781.176147 1532.795288,782.067261 1533.361450,782.962341 
	C1535.361206,786.124451 1537.239624,789.380371 1538.926880,792.720459 
	C1553.346313,821.267212 1567.760132,849.817078 1582.054565,878.426514 
	C1584.678101,883.677368 1588.541382,886.061707 1594.394165,886.041748 
	C1621.886353,885.947876 1649.378906,886.020142 1676.871338,885.988525 
	C1685.991577,885.978027 1689.665161,880.048218 1685.430542,871.946350 
	C1675.388550,852.733276 1665.220581,833.585876 1655.071289,814.429016 
	C1652.023682,808.676697 1648.817749,803.008179 1645.777832,797.251831 
	C1640.402466,787.073059 1635.098633,776.856445 1629.869263,766.855591 
	C1630.461548,766.150330 1630.629883,765.824463 1630.897583,765.657288 
	C1631.445923,765.314819 1632.053223,765.068298 1632.626221,764.763550 
	C1658.759888,750.863647 1672.421753,728.038269 1675.565918,699.660767 
	C1677.329834,683.740417 1677.246216,667.297729 1674.098511,651.141602 
	C1668.885864,624.386902 1654.837524,604.462158 1630.519043,591.847778 
	C1609.307739,580.845154 1586.223145,576.969360 1562.924072,576.320557 
	C1536.774048,575.592346 1510.547485,577.120605 1484.369995,578.092529 
	C1472.398193,578.537048 1460.397949,579.522034 1448.535767,581.165100 
	C1440.222046,582.316650 1431.238525,583.859741 1427.081177,592.665161 
	C1424.922485,597.237061 1423.360352,602.505310 1423.180542,607.518250 
	C1422.667236,621.829224 1423.000000,636.170593 1423.000000,651.500000 
M602.000000,492.500000 
	C602.000061,503.496063 601.695190,514.503113 602.091736,525.484924 
	C602.440674,535.149841 606.145447,539.225525 614.729187,540.910706 
	C623.363647,542.605835 632.086060,544.051819 640.838318,544.905640 
	C657.526428,546.533569 674.244873,548.402100 690.984253,548.816833 
	C713.237915,549.368225 735.527527,549.840393 757.615662,545.130005 
	C783.343689,539.643372 806.049866,529.312561 823.600220,508.988312 
	C835.687378,494.990814 843.205200,478.766144 847.934875,461.164612 
	C852.957397,442.473816 854.410828,423.308258 853.955872,404.023438 
	C853.491333,384.332031 853.219177,364.610870 851.851807,344.973145 
	C850.527466,325.954956 844.586182,308.182068 835.232605,291.388916 
	C824.378296,271.901550 808.558105,257.993713 788.839722,248.533005 
	C771.177795,240.058960 752.019104,236.008789 732.622009,235.265686 
	C711.408447,234.453033 690.079529,235.015411 668.871704,236.222641 
	C652.575134,237.150284 636.395020,240.062790 620.150757,241.988190 
	C606.000427,243.665390 602.000000,248.125870 602.000000,262.577759 
	C602.000000,338.885162 602.000000,415.192596 602.000000,492.500000 
M1044.062134,271.649109 
	C1038.710571,279.418152 1032.763550,286.849121 1028.122803,295.021729 
	C1015.804199,316.715363 1011.904297,340.760651 1011.189148,365.204468 
	C1010.597229,385.434082 1011.589600,405.713837 1012.021423,425.968384 
	C1012.418640,444.597229 1016.458862,462.336945 1023.683411,479.631226 
	C1032.222778,500.073029 1045.472290,516.514038 1063.580933,528.663086 
	C1084.304199,542.566223 1108.174072,547.564697 1132.667603,548.784058 
	C1144.458862,549.371155 1156.396362,548.016113 1168.209473,546.916260 
	C1182.397583,545.595337 1196.076782,541.654053 1208.844604,535.469116 
	C1230.930298,524.770508 1247.034424,507.797516 1258.017700,485.908997 
	C1267.537109,466.937561 1272.139160,446.536469 1272.751587,425.616272 
	C1273.475342,400.892883 1272.568237,376.108734 1271.912476,351.362976 
	C1271.530518,336.945618 1268.284546,322.984741 1263.012817,309.516022 
	C1254.395142,287.499023 1241.213013,269.143127 1221.396606,255.688492 
	C1200.980957,241.826950 1177.845459,236.970901 1153.969116,235.185150 
	C1139.023682,234.067368 1124.018066,235.075607 1109.129272,237.893341 
	C1084.228638,242.605850 1062.334229,252.811951 1044.062134,271.649109 
M1395.000000,713.504089 
	C1394.323364,702.814636 1394.322021,692.029236 1392.819946,681.457092 
	C1390.242310,663.314636 1384.705933,646.046570 1375.076416,630.218079 
	C1364.876831,613.452332 1351.437378,600.243652 1334.065796,590.975952 
	C1317.069214,581.908325 1298.634399,577.491089 1279.782349,576.265625 
	C1255.461304,574.684631 1231.286499,576.095398 1207.888794,584.832458 
	C1175.848633,596.796570 1155.208374,619.455933 1142.975098,650.690979 
	C1136.716797,666.669800 1133.737915,683.466125 1133.253662,700.375854 
	C1132.588379,723.604675 1133.511719,746.886902 1134.043823,770.139587 
	C1134.431885,787.092834 1138.354980,803.276794 1144.865479,818.994263 
	C1155.045532,843.570923 1171.220337,862.910339 1194.948975,874.792358 
	C1220.003540,887.338440 1246.993774,891.791748 1274.943848,888.927368 
	C1286.450562,887.748169 1298.097900,886.600403 1309.276245,883.814026 
	C1339.930298,876.172852 1362.828613,857.917480 1377.905396,830.199524 
	C1390.035034,807.900024 1394.310059,783.550842 1394.933594,758.487732 
	C1395.298096,743.834534 1395.000000,729.164734 1395.000000,713.504089 
M757.923767,865.212463 
	C759.621216,853.824219 761.318665,842.435913 763.023010,831.001587 
	C782.950867,831.001587 802.107544,830.947998 821.262085,831.124451 
	C822.513184,831.135986 824.662842,832.758667 824.850830,833.888672 
	C827.072937,847.247253 828.843811,860.680847 831.065918,874.039429 
	C832.369995,881.878967 834.852417,886.217712 844.499634,886.078613 
	C863.161133,885.809570 881.829285,886.000000 900.494690,886.000000 
	C908.160828,886.000000 915.827026,886.016479 923.493103,885.995667 
	C932.220276,885.971985 934.656433,882.698303 932.648071,874.170044 
	C931.270020,868.318604 930.157837,862.402649 929.008667,856.499573 
	C925.245972,837.172424 921.567871,817.828735 917.768433,798.508850 
	C913.562744,777.123108 909.232300,755.761963 905.006775,734.380066 
	C901.505310,716.661804 898.120728,698.920288 894.604675,681.204956 
	C891.122070,663.657593 887.530273,646.131897 884.003906,628.593262 
	C880.688538,612.104126 873.309753,598.334473 858.734436,588.887451 
	C844.483276,579.650513 828.350098,577.170044 812.114136,576.239258 
	C797.917175,575.425293 783.590576,576.408447 769.343201,577.070251 
	C754.856323,577.743042 741.036682,581.207336 728.504761,588.867554 
	C717.112610,595.831116 709.521790,605.782532 706.052490,618.621948 
	C703.936584,626.452942 702.452759,634.460815 700.841003,642.420776 
	C696.515747,663.781738 692.237854,685.152466 688.010864,706.533081 
	C684.507996,724.251282 681.138306,741.995667 677.647766,759.716309 
	C673.466675,780.942444 669.225586,802.156738 664.999817,823.374084 
	C661.504700,840.922485 658.084961,858.486633 654.443237,876.004639 
	C653.089294,882.517700 655.249084,885.932312 661.944641,885.956848 
	C689.609009,886.058472 717.274048,886.018616 744.938843,885.980286 
	C749.397827,885.974121 753.160461,884.152527 754.550415,879.782959 
	C755.968506,875.324951 756.554077,870.602051 757.923767,865.212463 
M544.526733,725.974670 
	C543.324890,734.047852 542.196106,742.132690 540.903931,750.191406 
	C538.994812,762.098633 537.019165,773.995728 534.975159,785.880554 
	C533.763306,792.926941 532.452576,799.959900 530.964050,806.951599 
	C530.722656,808.085510 529.322693,808.972778 528.458252,809.974060 
	C527.637573,808.944275 526.280701,808.008301 526.081482,806.869812 
	C524.564575,798.198364 523.347656,789.474976 521.896118,780.791443 
	C519.317322,765.364075 516.527893,749.971375 514.035767,734.530396 
	C511.851196,720.995056 510.090118,707.391418 507.896759,693.857605 
	C504.716309,674.233032 501.228638,654.658264 498.035889,635.035583 
	C495.546875,619.737732 493.400818,604.384155 490.914459,589.085815 
	C489.810852,582.295410 486.734802,580.001465 479.756989,580.000916 
	C451.926025,579.998779 424.095032,579.991882 396.264069,580.006409 
	C390.096344,580.009644 388.024780,582.779785 389.272461,588.661011 
	C391.297516,598.206726 393.130615,607.793640 394.992004,617.373474 
	C398.437225,635.104431 401.791595,652.853271 405.280273,670.575623 
	C409.804138,693.556763 414.463776,716.511108 418.987091,739.492371 
	C422.789520,758.811218 426.436554,778.160706 430.235382,797.480225 
	C433.090424,812.000061 435.798553,826.557251 439.079407,840.982422 
	C442.743958,857.094910 451.182068,869.857788 466.083771,878.084717 
	C483.468292,887.682434 502.593414,888.852051 521.637207,889.847778 
	C537.928650,890.699646 554.288940,889.498047 570.227539,885.850769 
	C581.352844,883.304871 591.905029,879.135010 600.613342,871.020874 
	C611.291260,861.071655 616.641846,848.805481 619.211426,834.694702 
	C623.144470,813.096741 627.746216,791.621155 631.994202,770.079773 
	C635.772034,750.922180 639.398254,731.734680 643.194580,712.580750 
	C647.399963,691.363159 651.751770,670.174683 655.985535,648.962646 
	C659.933533,629.182312 663.740845,609.373474 667.757141,589.607178 
	C669.115784,582.920776 667.007080,580.004150 660.172485,580.002563 
	C633.174744,579.996399 606.177063,580.000000 579.179321,580.000061 
	C569.510315,580.000061 567.224426,582.495300 565.909790,592.267395 
	C564.368164,603.726562 562.112305,615.088379 560.240356,626.504578 
	C558.445435,637.450745 556.753845,648.413879 555.001648,659.367065 
	C553.070312,671.440247 551.058838,683.500977 549.200378,695.585266 
	C547.685791,705.434021 546.345276,715.309570 544.526733,725.974670 
M1303.000000,523.377930 
	C1303.000122,533.376099 1303.384155,533.972839 1313.216187,537.060669 
	C1336.101685,544.248108 1359.710693,547.486145 1383.528931,548.830017 
	C1395.070435,549.481323 1406.714722,548.379211 1418.309937,547.995911 
	C1438.622559,547.324585 1457.408569,541.309631 1475.031982,531.453003 
	C1485.890747,525.379944 1495.412231,517.542419 1502.734253,507.495270 
	C1518.897583,485.316193 1523.922363,460.216400 1519.846313,433.451111 
	C1516.156372,409.220490 1503.652954,389.985352 1482.762939,377.120331 
	C1466.969482,367.393951 1450.369629,358.973724 1434.097656,350.028534 
	C1422.676636,343.750092 1411.180542,337.607880 1399.769043,331.312134 
	C1396.806763,329.677856 1394.181763,327.387726 1395.264893,323.549438 
	C1396.399780,319.528198 1399.742676,318.808899 1403.509277,318.980072 
	C1419.202637,319.693298 1434.902832,320.260040 1450.593628,321.021545 
	C1461.794678,321.565094 1472.992554,322.228058 1484.176270,323.048798 
	C1489.224854,323.419250 1494.256226,324.176788 1499.259399,324.981689 
	C1508.567139,326.479095 1511.973267,323.662231 1511.999878,314.201996 
	C1512.000366,314.035339 1512.000000,313.868683 1512.000000,313.702026 
	C1512.000000,295.202637 1512.001709,276.703217 1511.999146,258.203827 
	C1511.998291,251.420609 1508.988403,247.534180 1502.326782,246.032150 
	C1497.254883,244.888535 1492.173096,243.656967 1487.027466,242.995590 
	C1465.446899,240.221924 1443.895020,236.958466 1422.223999,235.256058 
	C1408.901855,234.209503 1395.382935,235.644623 1381.953247,235.996368 
	C1366.432739,236.402832 1351.571777,240.008469 1337.385620,246.077332 
	C1318.862183,254.001572 1304.776978,266.600006 1297.959473,286.124695 
	C1291.505371,304.608398 1291.613281,323.485779 1294.981689,342.513397 
	C1299.181152,366.235718 1311.991455,384.497406 1331.481323,397.942078 
	C1342.846680,405.782318 1355.074341,412.378510 1366.960571,419.456451 
	C1381.356323,428.028839 1395.820923,436.486053 1410.211548,445.067017 
	C1413.967529,447.306671 1415.820435,450.813538 1414.921143,455.135376 
	C1414.067749,459.235931 1412.318604,463.440582 1407.546265,463.880127 
	C1399.504150,464.620880 1391.358887,465.274353 1383.322266,464.817871 
	C1368.738159,463.989532 1354.194580,462.394836 1339.648804,460.970306 
	C1331.506470,460.172882 1323.341309,459.385193 1315.282104,458.026398 
	C1306.950317,456.621643 1303.006104,459.502258 1303.002441,467.909607 
	C1302.994507,486.075684 1303.000000,504.241760 1303.000000,523.377930 
M464.000183,349.320435 
	C464.000122,343.155121 463.991821,336.989807 464.002014,330.824493 
	C464.016205,322.225861 467.246674,319.005005 475.891510,319.002686 
	C503.220734,318.995422 530.549988,319.012177 557.879211,318.991455 
	C564.750916,318.986237 567.997803,315.689301 567.998840,308.855835 
	C568.002075,288.858826 567.726379,268.855591 568.180847,248.868927 
	C568.303711,243.463806 564.215576,239.608002 559.313904,239.077362 
	C548.212341,237.875580 537.093079,236.555725 525.947815,236.103973 
	C508.201324,235.384659 490.428925,235.244507 472.665405,235.027206 
	C457.510956,234.841827 442.479156,236.385971 427.790344,240.072021 
	C404.880035,245.821182 387.606140,259.096802 376.449341,280.070343 
	C369.064789,293.952545 366.293091,309.094086 366.142792,324.481476 
	C365.729309,366.804413 365.714081,409.137207 366.183411,451.458984 
	C366.315186,463.340668 367.491394,475.479492 370.253448,487.005524 
	C375.479980,508.815857 388.340942,525.211548 408.355591,536.226624 
	C426.065033,545.973022 445.406006,547.611389 464.720978,548.758057 
	C479.578064,549.640076 494.575958,548.587402 509.491150,547.935181 
	C525.460327,547.236877 541.424377,546.221436 557.353577,544.897949 
	C564.474854,544.306274 568.240723,541.529602 568.109741,533.814148 
	C567.778748,514.322754 568.001831,494.821899 567.999084,475.324829 
	C567.997986,467.508179 565.507263,465.001678 557.736694,465.000977 
	C530.240845,464.998444 502.744965,465.009033 475.249084,464.993317 
	C468.699524,464.989594 464.537628,462.506775 464.226379,457.018127 
	C463.684113,447.456421 464.075470,437.841766 464.075470,428.000000 
	C466.466949,428.000000 468.281433,428.000000 470.095917,428.000000 
	C499.924774,428.000000 529.753662,428.004028 559.582520,427.996246 
	C564.846130,427.994873 567.950256,425.173492 567.969849,419.976227 
	C568.044006,400.312775 568.042114,380.648773 567.969910,360.985321 
	C567.951782,356.034729 564.897949,353.184509 559.900391,353.005463 
	C558.901794,352.969696 557.900879,353.000031 556.901001,353.000031 
	C527.405457,352.999969 497.909851,353.015839 468.414368,352.962097 
	C466.566833,352.958740 463.654480,354.141418 464.000183,349.320435 
M1125.783081,812.342407 
	C1123.760498,807.602051 1120.412964,805.796997 1115.054932,805.879089 
	C1095.229492,806.182922 1075.393555,806.206299 1055.567749,805.914978 
	C1045.287109,805.763977 1042.030762,803.568359 1042.023193,792.572571 
	C1041.977051,724.916931 1042.002197,657.261353 1041.996582,589.605713 
	C1041.996094,582.693054 1039.349487,580.007568 1032.521729,580.004517 
	C1006.859253,579.993164 981.196777,579.999939 955.534302,580.000061 
	C947.009033,580.000122 944.000732,582.991028 944.000549,591.481628 
	C943.999451,656.804260 943.853577,722.127563 944.134644,787.449036 
	C944.185364,799.234924 945.132996,811.164307 947.167603,822.764099 
	C951.525513,847.608887 965.528564,865.999512 987.709412,877.869263 
	C1001.922913,885.475403 1017.717041,887.715454 1033.476807,888.820801 
	C1046.108643,889.706848 1058.867432,889.391724 1071.542236,888.898621 
	C1085.513794,888.355164 1099.473755,887.213928 1113.399536,885.914001 
	C1121.110107,885.194214 1126.365356,882.790710 1126.131592,872.676453 
	C1125.673462,852.856873 1125.979980,833.019592 1125.783081,812.342407 
M981.000000,436.500000 
	C981.000000,373.860229 981.000305,311.220428 980.999573,248.580643 
	C980.999512,241.469330 978.473694,239.003937 971.144592,239.002274 
	C945.488892,238.996429 919.833252,238.998108 894.177551,239.001175 
	C886.385925,239.002106 884.000732,241.441193 884.000610,249.401535 
	C883.999512,344.360809 884.083557,439.320282 883.838135,534.278931 
	C883.818909,541.712097 887.808533,545.085083 894.995422,545.049194 
	C920.317261,544.922729 945.640137,545.002625 970.962585,544.998413 
	C978.499817,544.997131 980.997620,542.498596 980.998474,534.958191 
	C981.002136,502.472137 981.000000,469.986053 981.000000,436.500000 
M216.585510,668.906860 
	C216.723557,653.088440 218.171097,637.141357 216.633896,621.487427 
	C215.074738,605.609985 205.466965,594.301514 190.423172,587.589172 
	C181.053680,583.408569 171.461990,583.854919 161.822189,584.081421 
	C147.653549,584.414307 136.371979,590.772400 128.007767,602.123230 
	C120.866745,611.814026 118.384232,623.122131 118.107872,634.840149 
	C117.897636,643.754211 118.238670,652.732605 119.093132,661.609314 
	C120.644638,677.727356 127.936234,690.886292 142.428574,698.590393 
	C157.937180,706.834656 174.701782,706.686279 190.633072,700.423279 
	C204.209320,695.086243 212.988739,684.325439 216.585510,668.906860 
M274.609741,586.993469 
	C270.801392,588.792542 266.993042,590.591675 263.217743,592.375122 
	C262.693787,585.001160 262.693787,585.000916 254.889832,585.000061 
	C250.390533,584.999634 245.888397,585.098816 241.392792,584.969910 
	C237.622467,584.861755 235.966705,586.454529 235.971848,590.272400 
	C236.020004,626.100098 236.019974,661.927856 235.972031,697.755554 
	C235.966888,701.593933 237.669144,703.125061 241.420624,703.031860 
	C246.583298,702.903564 251.751694,703.024109 256.917389,702.993835 
	C263.132935,702.957397 263.998230,702.061951 263.998901,695.783569 
	C264.001556,670.287537 263.955353,644.791260 264.096008,619.296021 
	C264.105865,617.512939 264.985840,614.863892 266.313507,614.101135 
	C274.584229,609.349609 283.556396,607.037231 293.175659,608.028137 
	C298.045227,608.529785 302.002777,612.094299 302.958618,616.952576 
	C303.523376,619.823242 303.943939,622.775574 303.955597,625.693115 
	C304.038818,646.522827 304.043030,667.353271 303.985992,688.183167 
	C303.942444,704.089966 302.950226,703.074158 318.664551,703.009827 
	C333.494995,702.949158 332.107941,704.494385 331.972900,689.674011 
	C331.736694,663.750183 331.726959,637.814087 330.822662,611.911011 
	C330.412567,600.165161 324.249237,590.300232 313.063232,586.369812 
	C300.865448,582.083740 287.899445,582.299316 274.609741,586.993469 
M61.404613,616.109619 
	C65.290611,610.390564 70.696159,607.721191 77.594757,607.996033 
	C86.348297,608.344849 95.104973,608.621582 103.855919,609.024353 
	C106.783707,609.159058 108.152771,608.165161 108.041977,605.041077 
	C107.876854,600.385132 108.336906,595.681763 107.828110,591.076172 
	C107.633224,589.312134 105.791611,586.712524 104.211502,586.280029 
	C91.596703,582.827759 78.349686,582.382080 65.844818,584.497986 
	C40.998657,588.701965 30.910915,606.383606 29.234995,628.155884 
	C28.274284,640.636658 28.650644,653.429321 30.248465,665.846985 
	C32.395317,682.531616 41.005405,695.115051 57.651291,701.384155 
	C69.647377,705.902100 81.872238,703.781494 94.030418,703.843323 
	C97.038773,703.858643 100.031509,702.505737 103.070641,702.034851 
	C106.852814,701.448914 108.389038,699.552673 108.067879,695.645081 
	C107.755257,691.841431 107.716225,687.965271 108.073997,684.169617 
	C108.491714,679.738159 106.530769,678.721313 102.562042,678.948181 
	C93.817406,679.448120 85.037964,679.417664 76.308105,680.074158 
	C68.503616,680.661133 60.844017,673.909729 59.050617,666.272766 
	C58.383091,663.430237 58.139713,660.478455 57.830372,657.562988 
	C56.367813,643.778748 55.745129,630.052734 61.404613,616.109619 
M1583.067261,966.631592 
	C1581.553589,969.007019 1580.040039,971.382507 1578.250366,974.191223 
	C1571.421875,964.093384 1564.463013,954.631104 1558.478638,944.588074 
	C1555.676147,939.884888 1552.610840,939.464539 1548.372437,940.347229 
	C1548.372437,959.755432 1548.372437,978.809265 1548.372437,997.759521 
	C1551.030518,997.759521 1553.309082,997.759521 1556.097656,997.759521 
	C1556.097656,983.871033 1556.097656,970.214539 1556.097656,955.184753 
	C1562.290039,964.453857 1567.659424,972.541260 1573.083618,980.591736 
	C1576.386719,985.494080 1579.858154,985.456604 1583.124146,980.609436 
	C1588.531982,972.582825 1593.971313,964.577515 1600.173096,955.417725 
	C1600.173096,970.434998 1600.173096,984.126465 1600.173096,997.794128 
	C1602.957031,997.794128 1605.235962,997.794128 1607.755737,997.794128 
	C1607.755737,978.522949 1607.755737,959.456909 1607.755737,940.415222 
	C1601.279419,939.653320 1601.263916,939.642883 1597.941650,944.559204 
	C1593.111450,951.706726 1588.306152,958.871155 1583.067261,966.631592 
M1014.934448,964.361572 
	C1016.708008,961.666626 1018.481567,958.971619 1020.255188,956.276611 
	C1020.564636,956.430847 1020.874146,956.585083 1021.183594,956.739319 
	C1021.183594,970.350708 1021.183594,983.962097 1021.183594,997.723633 
	C1023.863586,997.723633 1026.252441,997.723633 1028.706543,997.723633 
	C1028.706543,978.382385 1028.706543,959.318420 1028.706543,940.489258 
	C1023.566650,938.802612 1020.549011,940.635193 1018.259338,945.085876 
	C1016.189209,949.109558 1013.369934,952.754089 1010.812439,956.519287 
	C1006.853577,962.347839 1002.836426,968.136780 998.751648,974.076843 
	C991.865417,963.789001 985.121216,954.197876 978.944824,944.254028 
	C976.371338,940.110779 973.492126,939.173950 969.352173,940.420959 
	C969.352173,959.719666 969.352173,978.779114 969.352173,997.778320 
	C971.990784,997.778320 974.270813,997.778320 977.094604,997.778320 
	C977.094604,983.936218 977.094604,970.303162 977.094604,955.715698 
	C983.139282,964.731567 988.560547,972.821716 993.986511,980.908691 
	C996.887878,985.233032 1000.554626,985.290649 1003.447876,981.072998 
	C1007.132080,975.701965 1010.824341,970.336487 1014.934448,964.361572 
M437.987457,996.182678 
	C437.987457,977.583618 437.987457,958.984497 437.987457,940.296631 
	C435.095184,940.296631 432.707581,940.296631 429.758209,940.296631 
	C429.758209,954.844543 429.758209,969.104980 429.758209,984.101196 
	C419.846405,970.781311 410.367767,958.317322 401.228851,945.609009 
	C398.162445,941.344971 395.040558,938.484009 389.248810,940.501160 
	C389.248810,959.421387 389.248810,978.480042 389.248810,997.738892 
	C391.835785,997.738892 394.223846,997.738892 397.136169,997.738892 
	C397.136169,983.169434 397.136169,968.853699 397.136169,953.677551 
	C408.072968,968.096069 418.565735,981.583374 428.616180,995.392639 
	C431.579712,999.464539 434.553802,997.993469 437.987457,996.182678 
M1622.044678,984.258240 
	C1626.784790,991.775635 1633.107788,996.439880 1642.204712,998.257874 
	C1658.090698,1001.432861 1675.238281,993.118347 1678.160278,975.043274 
	C1682.113892,950.586243 1664.690186,935.285583 1641.673218,939.345093 
	C1619.873169,943.189880 1612.884888,966.748230 1622.044678,984.258240 
M706.508911,994.091919 
	C714.012634,998.317139 721.759033,999.840210 730.481873,998.159485 
	C741.734192,995.991272 749.051208,989.959656 752.384644,979.127014 
	C755.903320,967.692566 754.171936,957.099548 746.341187,947.903015 
	C739.661804,940.058777 730.586914,938.758362 720.870667,938.936523 
	C705.760071,939.213562 691.813416,953.982666 693.042786,969.055176 
	C693.857300,979.041382 697.097534,987.924255 706.508911,994.091919 
M641.010742,956.672791 
	C637.079224,946.956787 629.686157,941.599670 619.655212,939.242554 
	C608.157166,936.540588 592.464661,942.221741 587.087463,951.867981 
	C577.692871,968.721069 583.068420,994.934570 607.035461,998.264221 
	C618.360168,999.837524 628.198120,997.858337 635.617188,989.578125 
	C643.839539,980.401367 645.340942,969.219543 641.010742,956.672791 
M1265.501343,999.000000 
	C1284.016968,998.835144 1295.796021,986.259766 1295.764771,969.256287 
	C1295.732178,951.545105 1285.746460,940.366760 1268.954956,939.056885 
	C1245.508911,937.227966 1235.743042,952.226318 1235.127563,966.777344 
	C1234.318726,985.902710 1246.118896,998.485535 1265.501343,999.000000 
M461.038269,943.429504 
	C449.147675,950.834106 446.116241,963.497803 448.452332,975.662476 
	C451.704102,992.595520 466.851654,1000.979553 484.261505,998.223816 
	C506.759674,994.662659 512.620117,971.440125 505.473419,955.106323 
	C497.939453,937.887512 476.120789,935.082031 461.038269,943.429504 
M1052.763672,994.956299 
	C1061.287354,999.136230 1070.046631,1000.270020 1079.247437,997.332642 
	C1098.170044,991.291443 1101.830444,975.372131 1098.410278,960.426514 
	C1093.164551,937.503174 1067.663086,934.390747 1052.474976,943.122681 
	C1034.504150,953.454468 1034.125000,983.257507 1052.763672,994.956299 
M784.000000,958.500610 
	C784.000000,971.580688 784.000000,984.660767 784.000000,997.996704 
	C792.285400,997.996704 799.964294,998.502014 807.547974,997.868286 
	C816.950073,997.082581 825.306824,993.587830 830.482117,984.974426 
	C834.596008,978.127441 834.738953,970.421082 833.854614,962.947510 
	C832.538574,951.825867 825.421204,943.247375 814.780029,941.316650 
	C804.856567,939.516113 794.508606,940.054749 784.000000,939.546936 
	C784.000000,946.234436 784.000000,951.867859 784.000000,958.500610 
M1367.000000,978.614746 
	C1367.000000,985.037048 1367.000000,991.459412 1367.000000,997.756592 
	C1370.028687,997.756592 1372.306519,997.756592 1374.713135,997.756592 
	C1374.713135,978.446106 1374.713135,959.379700 1374.713135,940.336853 
	C1372.021362,940.336853 1369.632568,940.336853 1366.746094,940.336853 
	C1366.746094,948.733398 1366.746094,956.802856 1366.746094,964.747437 
	C1355.625854,964.747437 1345.018555,964.747437 1333.916138,964.747437 
	C1333.916138,956.434448 1333.916138,948.359375 1333.916138,940.342590 
	C1331.015015,940.342590 1328.623169,940.342590 1326.380981,940.342590 
	C1326.380981,959.746582 1326.380981,978.806152 1326.380981,997.751404 
	C1329.044678,997.751404 1331.318970,997.751404 1334.092773,997.751404 
	C1334.092773,989.446228 1334.092773,981.375488 1334.092773,973.169067 
	C1345.204712,973.169067 1355.810669,973.169067 1366.743286,973.169067 
	C1366.834473,974.757690 1366.917236,976.200623 1367.000000,978.614746 
M1515.536865,947.000000 
	C1522.638550,947.000000 1529.740356,947.000000 1536.792480,947.000000 
	C1536.792480,944.371155 1536.792480,942.423340 1536.792480,940.261597 
	C1523.855835,940.261597 1511.126709,940.261597 1498.307739,940.261597 
	C1498.307739,959.581909 1498.307739,978.639099 1498.307739,997.656860 
	C1511.685303,997.656860 1524.752441,997.656860 1537.786987,997.656860 
	C1537.786987,995.031738 1537.786987,992.751709 1537.786987,989.972290 
	C1527.182617,989.972290 1516.780762,989.972290 1506.312378,989.972290 
	C1506.312378,983.740479 1506.312378,978.015625 1506.312378,971.804932 
	C1516.027832,971.804932 1525.439941,971.804932 1534.788086,971.804932 
	C1534.788086,969.359680 1534.788086,967.412476 1534.788086,964.970154 
	C1525.184570,964.970154 1515.780518,964.970154 1506.312744,964.970154 
	C1506.312744,958.739990 1506.312744,953.015137 1506.312744,947.000000 
	C1509.264648,947.000000 1511.906860,947.000000 1515.536865,947.000000 
M1392.058472,992.688416 
	C1392.607910,991.680420 1393.514648,990.716858 1393.646484,989.656921 
	C1394.293457,984.454285 1397.514771,983.701050 1402.044678,983.916016 
	C1408.857300,984.239197 1415.703369,983.838135 1422.519165,984.126343 
	C1424.021729,984.189880 1425.837402,985.558594 1426.823120,986.849854 
	C1427.958984,988.337585 1428.256958,990.440674 1429.054321,992.215637 
	C1432.030396,998.840027 1432.543335,999.060120 1439.968994,997.196777 
	C1432.623779,980.365662 1425.329346,963.542969 1417.937744,946.763000 
	C1414.710571,939.436829 1414.620239,939.476624 1406.213257,940.333435 
	C1398.002197,959.294983 1389.773193,978.297913 1381.324097,997.809204 
	C1386.231079,997.916870 1390.774170,999.645081 1392.058472,992.688416 
M879.343140,947.000000 
	C880.791931,946.921387 882.240662,946.842834 883.681885,946.764648 
	C883.681885,944.391174 883.681885,942.337952 883.681885,940.342773 
	C870.650574,940.342773 857.939697,940.342773 845.357056,940.342773 
	C845.357056,959.724548 845.357056,978.761719 845.357056,997.626465 
	C858.433838,997.626465 871.150635,997.626465 883.761230,997.626465 
	C883.761230,994.974915 883.761230,992.699463 883.761230,989.942749 
	C873.142822,989.942749 862.753113,989.942749 852.309570,989.942749 
	C852.309570,983.733215 852.309570,978.014832 852.309570,971.824585 
	C862.010498,971.824585 871.410217,971.824585 880.621033,971.824585 
	C880.621033,969.285645 880.621033,967.231445 880.621033,964.866333 
	C870.982788,964.866333 861.719116,964.866333 852.265381,964.866333 
	C852.265381,958.824341 852.265381,953.106689 852.265381,947.000000 
	C861.142395,947.000000 869.758240,947.000000 879.343140,947.000000 
M1130.976929,990.995972 
	C1122.343872,991.615967 1114.080078,990.277405 1106.179932,985.601624 
	C1106.179932,988.808105 1106.179932,991.270264 1106.179932,993.528870 
	C1115.443115,998.914185 1125.171997,1000.408203 1135.248657,997.895752 
	C1141.578003,996.317566 1148.140625,992.597473 1148.134155,982.926636 
	C1148.129395,975.850525 1143.600708,970.178467 1134.557495,966.977600 
	C1129.367065,965.140442 1124.102783,963.370422 1119.187256,960.933716 
	C1113.138794,957.935486 1112.112183,951.213623 1117.302124,948.535950 
	C1120.578613,946.845459 1124.871826,946.098022 1128.553833,946.468628 
	C1133.706909,946.987244 1138.715698,948.941772 1143.730835,950.267334 
	C1144.277466,941.988953 1145.345825,942.688599 1137.057861,940.248352 
	C1132.284058,938.842773 1126.825439,938.501343 1121.884644,939.188477 
	C1111.781128,940.593628 1107.374512,944.518433 1106.081421,953.096802 
	C1104.971558,960.458679 1109.217407,965.683044 1118.283325,969.064575 
	C1122.993652,970.821350 1128.034790,971.955566 1132.365723,974.375000 
	C1135.400391,976.070251 1138.227661,979.121521 1139.669922,982.248779 
	C1140.347046,983.717102 1137.814819,987.008240 1136.202637,989.051819 
	C1135.335938,990.150574 1133.338989,990.357849 1130.976929,990.995972 
M538.312073,995.060120 
	C546.262207,998.632324 554.377991,999.937012 563.106567,998.101074 
	C570.780823,996.486816 576.150940,992.396240 576.984436,986.325317 
	C578.203796,977.443787 575.916748,972.876160 567.507019,968.961975 
	C561.198242,966.025696 554.495483,963.929993 548.212952,960.944824 
	C542.842957,958.393250 541.440002,951.575684 545.850891,949.294922 
	C549.663025,947.323853 554.526733,946.426636 558.843201,946.649719 
	C563.564636,946.893616 568.191467,948.968628 574.366333,950.657837 
	C572.852600,947.228271 572.382935,943.123474 570.334290,942.059814 
	C562.331909,937.905090 553.584045,937.795166 545.048645,940.551636 
	C538.441406,942.685364 534.239075,949.119568 535.926147,957.579712 
	C537.165039,963.792725 541.129639,966.935974 546.641968,969.050842 
	C553.129028,971.539551 559.691162,973.969543 565.805054,977.209412 
	C567.595337,978.158020 568.822144,981.814392 568.723816,984.163452 
	C568.644836,986.050598 566.519897,988.428589 564.671509,989.508423 
	C562.692566,990.664673 559.915344,991.132812 557.590637,990.892761 
	C550.382812,990.148438 543.224426,988.924988 535.716675,987.839783 
	C536.120544,989.435669 536.811768,992.167236 538.312073,995.060120 
M1715.816772,997.664307 
	C1723.261597,995.081604 1726.566040,990.921753 1727.084351,985.087830 
	C1727.886108,976.063049 1724.238892,971.057678 1715.962524,967.936035 
	C1710.051514,965.706604 1704.169678,963.396912 1698.310059,961.035156 
	C1694.759888,959.604126 1692.926147,956.651001 1694.184937,953.171814 
	C1695.015869,950.874695 1697.254883,948.198547 1699.444458,947.491882 
	C1702.647095,946.458130 1706.425293,946.604614 1709.858276,947.038635 
	C1714.267090,947.596069 1718.576782,948.936890 1722.862793,949.924927 
	C1723.236450,941.950928 1723.241089,941.385010 1714.804199,940.158691 
	C1708.930176,939.304749 1702.779175,939.513184 1696.847656,940.145142 
	C1691.416748,940.723633 1686.523315,946.028870 1686.044312,950.762817 
	C1685.389282,957.237061 1685.926270,963.469055 1692.633179,966.824524 
	C1696.679321,968.848877 1701.019653,970.287292 1705.234619,971.971924 
	C1707.789917,972.993347 1710.427612,973.836304 1712.906250,975.016174 
	C1718.102173,977.489563 1720.174561,980.843201 1718.909180,985.453674 
	C1717.626953,990.125549 1713.166382,990.481018 1709.417480,990.904663 
	C1701.320435,991.819519 1693.531006,990.422485 1686.419922,985.792480 
	C1685.437988,994.420837 1685.478027,994.556396 1692.761963,996.906189 
	C1700.075317,999.265564 1707.510498,999.608704 1715.816772,997.664307 
M928.362122,998.001465 
	C938.152344,995.999390 938.984436,995.002563 937.354614,987.228638 
	C922.664001,992.875488 908.859131,991.447388 903.103455,983.262756 
	C895.718384,972.761047 896.539429,964.623962 902.593567,955.104675 
	C908.472717,945.860413 920.157837,944.605286 936.759277,950.446228 
	C937.058899,940.967346 938.718140,942.153503 929.009766,940.033020 
	C925.046448,939.167297 920.832947,938.848999 916.784241,939.101196 
	C909.205750,939.573303 902.260620,942.644226 897.478943,948.369446 
	C890.956848,956.178406 889.152954,965.313721 890.762451,975.805176 
	C893.194458,991.658936 913.064941,1002.434265 928.362122,998.001465 
M1461.519531,997.113953 
	C1468.195068,999.837830 1474.994507,999.374878 1481.745728,997.632446 
	C1488.339233,995.930847 1488.703735,995.094055 1487.462646,987.545959 
	C1471.508911,995.019592 1459.609131,989.708008 1453.939331,983.305481 
	C1446.690308,975.119507 1447.208862,963.855957 1452.282227,956.835083 
	C1461.667969,943.846191 1474.437378,944.033142 1487.909424,950.711731 
	C1487.909424,947.701111 1487.909424,945.213745 1487.909424,942.772339 
	C1469.202759,933.388062 1448.195312,941.393005 1442.711548,957.765015 
	C1437.873169,972.210327 1441.812256,990.772461 1461.519531,997.113953 
M661.000000,960.500122 
	C661.000000,953.739258 661.000000,946.978455 661.000000,940.373291 
	C657.954895,940.373291 655.564392,940.373291 653.388550,940.373291 
	C653.388550,959.786682 653.388550,978.825256 653.388550,997.764160 
	C666.710144,997.764160 679.641907,997.764160 692.724854,997.764160 
	C692.724854,995.136047 692.724854,992.748352 692.724854,989.874023 
	C682.068787,989.874023 671.677124,989.874023 661.000000,989.874023 
	C661.000000,980.089722 661.000000,970.794922 661.000000,960.500122 
M1203.000000,982.431885 
	C1203.000000,968.352173 1203.000000,954.272461 1203.000000,940.201782 
	C1200.048218,940.201782 1197.770386,940.201782 1195.247803,940.201782 
	C1195.247803,959.447083 1195.247803,978.491333 1195.247803,997.747009 
	C1208.174805,997.747009 1220.891968,997.747009 1233.705322,997.747009 
	C1233.705322,995.099121 1233.705322,992.710999 1233.705322,989.836548 
	C1223.362061,989.836548 1213.303833,989.836548 1203.000000,989.836548 
	C1203.000000,987.366333 1203.000000,985.389282 1203.000000,982.431885 
M947.000000,979.499512 
	C947.000000,985.602661 947.000000,991.705811 947.000000,997.612305 
	C950.075684,997.612305 952.462280,997.612305 954.750977,997.612305 
	C954.750977,978.281860 954.750977,959.339722 954.750977,940.294006 
	C952.105164,940.294006 949.714844,940.294006 947.000000,940.294006 
	C947.000000,953.223022 947.000000,965.861328 947.000000,979.499512 
M1154.994141,992.306763 
	C1153.565796,998.041321 1152.137329,1003.775818 1150.323608,1011.057861 
	C1153.825195,1009.843262 1157.111572,1009.655273 1157.630005,1008.359741 
	C1159.938232,1002.591736 1161.454590,996.506897 1163.690430,989.101929 
	C1159.919556,990.116943 1157.471191,990.776001 1154.994141,992.306763 
M1740.936768,990.421143 
	C1738.266113,987.550171 1735.456055,989.015686 1733.773438,991.103394 
	C1732.781128,992.334595 1732.805420,996.009033 1733.813110,996.841797 
	C1735.266724,998.043091 1738.376587,998.501648 1740.154297,997.765869 
	C1743.124634,996.536377 1743.523682,993.746460 1740.936768,990.421143 
z"/>
<path fill="#00DC2A" opacity="1.000000" stroke="none" 
	d="
M1805.625000,0.999997 
	C1809.838013,7.334781 1813.721313,13.642572 1817.505371,20.009399 
	C1829.166260,39.629822 1840.986694,59.159317 1852.351440,78.950226 
	C1858.965576,90.468391 1865.101685,102.283646 1870.968750,114.203522 
	C1883.971680,140.620941 1895.265625,167.799698 1903.366821,196.107529 
	C1907.899536,211.945435 1911.021973,228.242477 1913.843018,244.495270 
	C1915.742920,255.440613 1916.371094,266.652954 1916.894287,277.777557 
	C1917.387695,288.271393 1917.635864,298.854034 1916.857910,309.313263 
	C1915.518677,327.318298 1912.220825,345.065216 1906.902466,362.358734 
	C1898.477905,389.752411 1886.719849,415.627319 1870.278442,439.162231 
	C1860.321533,453.415039 1850.456665,467.860260 1839.137207,481.001709 
	C1823.923828,498.663757 1807.877441,515.695374 1791.187988,531.971497 
	C1777.585571,545.236938 1762.519775,557.002625 1748.089478,569.417725 
	C1743.504883,573.362061 1738.877319,577.256531 1733.885620,581.500061 
	C1726.547119,575.813354 1719.094116,570.551453 1712.230103,564.609009 
	C1699.159180,553.292786 1686.144775,541.880615 1673.648071,529.942078 
	C1665.186890,521.858765 1657.107544,513.239502 1649.827148,504.088440 
	C1639.004395,490.484497 1628.248169,476.705597 1618.878662,462.093872 
	C1601.300293,434.680511 1587.956421,405.243835 1582.056519,372.954681 
	C1579.774658,360.466187 1578.088623,347.806946 1577.168701,335.150055 
	C1576.360229,324.025055 1575.957642,312.672211 1577.253540,301.640625 
	C1579.047974,286.364655 1581.833862,271.102173 1585.587891,256.184448 
	C1590.767334,235.603714 1598.980835,216.049911 1608.949341,197.268494 
	C1619.390503,177.596542 1631.503052,159.058319 1645.003052,141.317139 
	C1661.141846,120.108185 1678.859009,100.319588 1698.434692,82.381302 
	C1715.796875,66.471397 1734.104004,51.531300 1752.630249,36.972538 
	C1767.428101,25.343842 1783.174194,14.920544 1798.528198,4.002657 
	C1799.836304,3.072413 1801.361694,2.447749 1802.893066,1.340586 
	C1803.750000,1.000000 1804.500000,1.000000 1805.625000,0.999997 
z"/>
<path fill="#00DC2A" opacity="1.000000" stroke="none" 
	d="
M1975.000000,571.625000 
	C1971.669922,579.449585 1968.258667,586.864136 1965.025024,594.355286 
	C1955.170288,617.184570 1943.560181,639.021790 1928.549927,658.926147 
	C1918.247070,672.587952 1906.435913,684.757996 1892.175659,694.349365 
	C1876.770264,704.710938 1859.979126,711.948181 1841.454956,713.862854 
	C1827.527832,715.302368 1813.392822,716.494934 1799.462402,715.736755 
	C1776.396729,714.481445 1753.915405,708.978394 1731.698364,702.742920 
	C1730.446655,702.391602 1729.060669,699.553101 1729.126221,697.928345 
	C1729.857910,679.806335 1732.203125,661.914185 1736.954224,644.346741 
	C1742.392944,624.237366 1750.776611,605.505737 1764.176514,589.542358 
	C1778.870483,572.036987 1797.215942,559.289673 1819.432495,553.157837 
	C1829.856567,550.280945 1840.674561,548.679688 1851.403931,547.117249 
	C1858.067627,546.146912 1864.903809,545.982544 1871.655273,546.064331 
	C1893.630615,546.330383 1915.134033,550.152588 1936.181396,556.170776 
	C1949.031006,559.845032 1961.547729,564.683594 1974.606934,568.999634 
	C1975.000000,569.750000 1975.000000,570.500000 1975.000000,571.625000 
z"/>
<path fill="#535B6F" opacity="1.000000" stroke="none" 
	d="
M157.759415,456.262390 
	C152.733688,449.189667 147.910660,442.417450 143.215881,435.557465 
	C136.777756,426.150055 130.495636,416.635193 123.984924,407.278900 
	C123.106125,406.016052 121.287651,405.407043 119.000000,403.899292 
	C119.000000,407.212891 119.000000,409.028412 119.000000,410.843903 
	C119.000000,452.506989 119.001312,494.170105 118.998795,535.833191 
	C118.998337,543.398865 117.365372,544.998352 109.654297,544.999084 
	C83.989838,545.001465 58.325325,544.972473 32.660950,545.019592 
	C26.313231,545.031250 24.890638,543.617981 24.900229,537.360962 
	C25.044283,443.369293 24.999243,349.377289 25.001053,255.385376 
	C25.001255,244.880402 30.868450,239.003510 41.353630,239.001129 
	C59.352081,238.997055 77.350533,239.003326 95.348984,238.998611 
	C104.516342,238.996201 111.837463,242.356613 116.780014,250.391785 
	C134.165878,278.656158 151.597626,306.892303 169.036636,335.123901 
	C171.089478,338.447235 173.152298,341.781708 175.470367,344.919006 
	C177.789795,348.058167 179.834305,348.554443 182.280609,344.473267 
	C189.894333,331.771240 197.885178,319.295593 205.699112,306.713104 
	C217.540329,287.645630 229.129654,268.416138 241.301025,249.562134 
	C245.744476,242.679016 252.506775,238.834274 261.283905,238.935272 
	C279.779877,239.148132 298.279968,238.997192 316.778381,239.001190 
	C325.980804,239.003189 331.997498,244.905289 331.997833,253.952286 
	C332.001343,348.610809 331.955109,443.269379 332.112427,537.927673 
	C332.121796,543.559937 330.168091,545.035583 324.772186,545.024231 
	C299.107849,544.970093 273.443329,545.000427 247.778870,544.999756 
	C240.423691,544.999573 238.001617,542.488098 238.001160,534.837158 
	C237.998703,493.507385 238.000000,452.177612 238.000000,410.847839 
	C238.000000,409.026459 238.000000,407.205078 238.000000,405.383728 
	C237.645859,405.080505 237.291733,404.777283 236.937592,404.474060 
	C235.299149,405.949158 233.293243,407.171967 232.079926,408.938965 
	C221.661377,424.111847 211.282501,439.314667 201.133316,454.668182 
	C198.213303,459.085571 194.818787,461.355652 189.371002,461.082245 
	C182.555435,460.740143 175.697647,460.754089 168.881119,461.086578 
	C164.345261,461.307831 160.782471,460.092163 157.759415,456.262390 
z"/>
<path fill="#535B6F" opacity="1.000000" stroke="none" 
	d="
M1423.000000,651.000000 
	C1423.000000,636.170593 1422.667236,621.829224 1423.180542,607.518250 
	C1423.360352,602.505310 1424.922485,597.237061 1427.081177,592.665161 
	C1431.238525,583.859741 1440.222046,582.316650 1448.535767,581.165100 
	C1460.397949,579.522034 1472.398193,578.537048 1484.369995,578.092529 
	C1510.547485,577.120605 1536.774048,575.592346 1562.924072,576.320557 
	C1586.223145,576.969360 1609.307739,580.845154 1630.519043,591.847778 
	C1654.837524,604.462158 1668.885864,624.386902 1674.098511,651.141602 
	C1677.246216,667.297729 1677.329834,683.740417 1675.565918,699.660767 
	C1672.421753,728.038269 1658.759888,750.863647 1632.626221,764.763550 
	C1632.053223,765.068298 1631.445923,765.314819 1630.897583,765.657288 
	C1630.629883,765.824463 1630.461548,766.150330 1629.869263,766.855591 
	C1635.098633,776.856445 1640.402466,787.073059 1645.777832,797.251831 
	C1648.817749,803.008179 1652.023682,808.676697 1655.071289,814.429016 
	C1665.220581,833.585876 1675.388550,852.733276 1685.430542,871.946350 
	C1689.665161,880.048218 1685.991577,885.978027 1676.871338,885.988525 
	C1649.378906,886.020142 1621.886353,885.947876 1594.394165,886.041748 
	C1588.541382,886.061707 1584.678101,883.677368 1582.054565,878.426514 
	C1567.760132,849.817078 1553.346313,821.267212 1538.926880,792.720459 
	C1537.239624,789.380371 1535.361206,786.124451 1533.361450,782.962341 
	C1532.795288,782.067261 1531.524658,781.176147 1530.509033,781.090637 
	C1527.556641,780.841919 1524.569702,781.002502 1521.000000,781.002502 
	C1521.000000,783.069641 1521.000000,784.839844 1521.000000,786.610107 
	C1521.000000,815.435547 1520.957031,844.261047 1521.025879,873.086304 
	C1521.046875,881.877136 1517.192993,886.229004 1507.957764,886.107849 
	C1483.635376,885.788818 1459.306030,886.004333 1434.979370,885.997742 
	C1425.989990,885.995300 1423.000000,882.973022 1423.000000,873.938049 
	C1423.000000,799.792053 1423.000000,725.645996 1423.000000,651.000000 
M1559.507324,707.118164 
	C1563.483398,705.430115 1568.138672,704.551086 1571.302612,701.895386 
	C1579.302979,695.180115 1579.927246,685.754700 1578.588623,676.147095 
	C1577.513428,668.432068 1574.205078,662.041443 1566.128296,659.722107 
	C1562.417725,658.656616 1558.445312,658.130188 1554.578003,658.054382 
	C1543.546509,657.838013 1532.507812,657.978394 1521.258301,657.978394 
	C1521.258301,674.170593 1521.258301,690.883240 1521.258301,707.665466 
	C1533.947510,707.665466 1546.379028,707.665466 1559.507324,707.118164 
z"/>
<path fill="#535B6F" opacity="1.000000" stroke="none" 
	d="
M602.000000,492.000000 
	C602.000000,415.192596 602.000000,338.885162 602.000000,262.577759 
	C602.000000,248.125870 606.000427,243.665390 620.150757,241.988190 
	C636.395020,240.062790 652.575134,237.150284 668.871704,236.222641 
	C690.079529,235.015411 711.408447,234.453033 732.622009,235.265686 
	C752.019104,236.008789 771.177795,240.058960 788.839722,248.533005 
	C808.558105,257.993713 824.378296,271.901550 835.232605,291.388916 
	C844.586182,308.182068 850.527466,325.954956 851.851807,344.973145 
	C853.219177,364.610870 853.491333,384.332031 853.955872,404.023438 
	C854.410828,423.308258 852.957397,442.473816 847.934875,461.164612 
	C843.205200,478.766144 835.687378,494.990814 823.600220,508.988312 
	C806.049866,529.312561 783.343689,539.643372 757.615662,545.130005 
	C735.527527,549.840393 713.237915,549.368225 690.984253,548.816833 
	C674.244873,548.402100 657.526428,546.533569 640.838318,544.905640 
	C632.086060,544.051819 623.363647,542.605835 614.729187,540.910706 
	C606.145447,539.225525 602.440674,535.149841 602.091736,525.484924 
	C601.695190,514.503113 602.000061,503.496063 602.000000,492.000000 
M737.212646,322.039062 
	C725.158203,316.952972 712.605408,319.717560 700.373535,318.978149 
	C700.373535,368.071075 700.373535,416.449768 700.373535,464.998993 
	C708.568481,464.998993 716.401184,465.257904 724.210571,464.941986 
	C738.017761,464.383392 748.579285,456.525208 750.921387,444.813171 
	C752.677185,436.032928 754.792480,427.098206 754.781433,418.234741 
	C754.751831,394.551147 754.126648,370.842468 752.779724,347.198334 
	C752.195129,336.936371 748.130676,327.495483 737.212646,322.039062 
z"/>
<path fill="#535B6F" opacity="1.000000" stroke="none" 
	d="
M1044.261963,271.350098 
	C1062.334229,252.811951 1084.228638,242.605850 1109.129272,237.893341 
	C1124.018066,235.075607 1139.023682,234.067368 1153.969116,235.185150 
	C1177.845459,236.970901 1200.980957,241.826950 1221.396606,255.688492 
	C1241.213013,269.143127 1254.395142,287.499023 1263.012817,309.516022 
	C1268.284546,322.984741 1271.530518,336.945618 1271.912476,351.362976 
	C1272.568237,376.108734 1273.475342,400.892883 1272.751587,425.616272 
	C1272.139160,446.536469 1267.537109,466.937561 1258.017700,485.908997 
	C1247.034424,507.797516 1230.930298,524.770508 1208.844604,535.469116 
	C1196.076782,541.654053 1182.397583,545.595337 1168.209473,546.916260 
	C1156.396362,548.016113 1144.458862,549.371155 1132.667603,548.784058 
	C1108.174072,547.564697 1084.304199,542.566223 1063.580933,528.663086 
	C1045.472290,516.514038 1032.222778,500.073029 1023.683411,479.631226 
	C1016.458862,462.336945 1012.418640,444.597229 1012.021423,425.968384 
	C1011.589600,405.713837 1010.597229,385.434082 1011.189148,365.204468 
	C1011.904297,340.760651 1015.804199,316.715363 1028.122803,295.021729 
	C1032.763550,286.849121 1038.710571,279.418152 1044.261963,271.350098 
M1126.078491,458.577332 
	C1133.518433,462.701660 1141.447632,463.621857 1149.682983,461.942627 
	C1157.751099,460.297485 1164.022461,456.149780 1167.808838,448.565277 
	C1172.290283,439.588684 1173.760498,429.829498 1173.839478,420.114838 
	C1174.017334,398.214966 1174.174438,376.252106 1172.720947,354.422638 
	C1171.649902,338.335938 1167.094238,324.562469 1146.679443,321.356476 
	C1136.921021,319.824005 1122.632080,323.815277 1116.915161,334.917786 
	C1111.483398,345.466797 1110.394287,356.956573 1110.267944,368.194244 
	C1110.022339,390.016327 1110.815674,411.890076 1112.242798,433.672668 
	C1112.870605,443.255798 1116.242920,452.590485 1126.078491,458.577332 
z"/>
<path fill="#535B6F" opacity="1.000000" stroke="none" 
	d="
M1395.000000,714.003296 
	C1395.000000,729.164734 1395.298096,743.834534 1394.933594,758.487732 
	C1394.310059,783.550842 1390.035034,807.900024 1377.905396,830.199524 
	C1362.828613,857.917480 1339.930298,876.172852 1309.276245,883.814026 
	C1298.097900,886.600403 1286.450562,887.748169 1274.943848,888.927368 
	C1246.993774,891.791748 1220.003540,887.338440 1194.948975,874.792358 
	C1171.220337,862.910339 1155.045532,843.570923 1144.865479,818.994263 
	C1138.354980,803.276794 1134.431885,787.092834 1134.043823,770.139587 
	C1133.511719,746.886902 1132.588379,723.604675 1133.253662,700.375854 
	C1133.737915,683.466125 1136.716797,666.669800 1142.975098,650.690979 
	C1155.208374,619.455933 1175.848633,596.796570 1207.888794,584.832458 
	C1231.286499,576.095398 1255.461304,574.684631 1279.782349,576.265625 
	C1298.634399,577.491089 1317.069214,581.908325 1334.065796,590.975952 
	C1351.437378,600.243652 1364.876831,613.452332 1375.076416,630.218079 
	C1384.705933,646.046570 1390.242310,663.314636 1392.819946,681.457092 
	C1394.322021,692.029236 1394.323364,702.814636 1395.000000,714.003296 
M1293.991577,689.722046 
	C1293.664917,688.634460 1293.238159,687.565918 1293.027100,686.456299 
	C1290.532593,673.342224 1283.501221,664.551575 1269.775635,662.369751 
	C1258.521240,660.580750 1243.764648,663.937988 1237.894287,677.015808 
	C1233.851196,686.023132 1232.281372,695.611389 1232.243774,705.051453 
	C1232.150513,728.540283 1230.162598,752.146851 1234.078369,775.510986 
	C1235.909424,786.436768 1239.662964,796.816650 1251.301758,800.861389 
	C1256.547852,802.684509 1262.561279,803.011292 1268.193359,802.851135 
	C1277.439087,802.588135 1284.468994,798.220581 1289.117065,789.815186 
	C1294.631714,779.842407 1295.382202,768.880554 1295.827881,758.062744 
	C1296.491943,741.945862 1296.183716,725.778259 1295.908569,709.638733 
	C1295.800171,703.282837 1294.667358,696.944336 1293.991577,689.722046 
z"/>
<path fill="#535B6F" opacity="1.000000" stroke="none" 
	d="
M757.713989,865.603821 
	C756.554077,870.602051 755.968506,875.324951 754.550415,879.782959 
	C753.160461,884.152527 749.397827,885.974121 744.938843,885.980286 
	C717.274048,886.018616 689.609009,886.058472 661.944641,885.956848 
	C655.249084,885.932312 653.089294,882.517700 654.443237,876.004639 
	C658.084961,858.486633 661.504700,840.922485 664.999817,823.374084 
	C669.225586,802.156738 673.466675,780.942444 677.647766,759.716309 
	C681.138306,741.995667 684.507996,724.251282 688.010864,706.533081 
	C692.237854,685.152466 696.515747,663.781738 700.841003,642.420776 
	C702.452759,634.460815 703.936584,626.452942 706.052490,618.621948 
	C709.521790,605.782532 717.112610,595.831116 728.504761,588.867554 
	C741.036682,581.207336 754.856323,577.743042 769.343201,577.070251 
	C783.590576,576.408447 797.917175,575.425293 812.114136,576.239258 
	C828.350098,577.170044 844.483276,579.650513 858.734436,588.887451 
	C873.309753,598.334473 880.688538,612.104126 884.003906,628.593262 
	C887.530273,646.131897 891.122070,663.657593 894.604675,681.204956 
	C898.120728,698.920288 901.505310,716.661804 905.006775,734.380066 
	C909.232300,755.761963 913.562744,777.123108 917.768433,798.508850 
	C921.567871,817.828735 925.245972,837.172424 929.008667,856.499573 
	C930.157837,862.402649 931.270020,868.318604 932.648071,874.170044 
	C934.656433,882.698303 932.220276,885.971985 923.493103,885.995667 
	C915.827026,886.016479 908.160828,886.000000 900.494690,886.000000 
	C881.829285,886.000000 863.161133,885.809570 844.499634,886.078613 
	C834.852417,886.217712 832.369995,881.878967 831.065918,874.039429 
	C828.843811,860.680847 827.072937,847.247253 824.850830,833.888672 
	C824.662842,832.758667 822.513184,831.135986 821.262085,831.124451 
	C802.107544,830.947998 782.950867,831.001587 763.023010,831.001587 
	C761.318665,842.435913 759.621216,853.824219 757.713989,865.603821 
M807.924255,727.792847 
	C807.469238,725.565186 806.932190,723.350647 806.572754,721.107666 
	C804.690002,709.361572 802.863708,697.606506 800.995300,685.858154 
	C799.586975,677.002686 798.248962,668.133179 796.613953,659.319275 
	C796.344116,657.864380 794.707275,656.663086 793.702087,655.344666 
	C792.797058,656.721680 791.343750,657.999023 791.072510,659.491272 
	C788.599060,673.098267 786.285034,686.734924 784.017700,700.378418 
	C782.014832,712.430420 780.071411,724.493103 778.220276,736.569214 
	C777.297058,742.592346 776.639099,748.656189 775.822693,755.000000 
	C782.546631,755.000000 788.361267,755.000000 794.175964,755.000000 
	C800.075562,755.000000 805.975159,755.000000 811.845581,755.000000 
	C810.490540,745.752441 809.239746,737.216431 807.924255,727.792847 
z"/>
<path fill="#535B6F" opacity="1.000000" stroke="none" 
	d="
M544.727173,725.573975 
	C546.345276,715.309570 547.685791,705.434021 549.200378,695.585266 
	C551.058838,683.500977 553.070312,671.440247 555.001648,659.367065 
	C556.753845,648.413879 558.445435,637.450745 560.240356,626.504578 
	C562.112305,615.088379 564.368164,603.726562 565.909790,592.267395 
	C567.224426,582.495300 569.510315,580.000061 579.179321,580.000061 
	C606.177063,580.000000 633.174744,579.996399 660.172485,580.002563 
	C667.007080,580.004150 669.115784,582.920776 667.757141,589.607178 
	C663.740845,609.373474 659.933533,629.182312 655.985535,648.962646 
	C651.751770,670.174683 647.399963,691.363159 643.194580,712.580750 
	C639.398254,731.734680 635.772034,750.922180 631.994202,770.079773 
	C627.746216,791.621155 623.144470,813.096741 619.211426,834.694702 
	C616.641846,848.805481 611.291260,861.071655 600.613342,871.020874 
	C591.905029,879.135010 581.352844,883.304871 570.227539,885.850769 
	C554.288940,889.498047 537.928650,890.699646 521.637207,889.847778 
	C502.593414,888.852051 483.468292,887.682434 466.083771,878.084717 
	C451.182068,869.857788 442.743958,857.094910 439.079407,840.982422 
	C435.798553,826.557251 433.090424,812.000061 430.235382,797.480225 
	C426.436554,778.160706 422.789520,758.811218 418.987091,739.492371 
	C414.463776,716.511108 409.804138,693.556763 405.280273,670.575623 
	C401.791595,652.853271 398.437225,635.104431 394.992004,617.373474 
	C393.130615,607.793640 391.297516,598.206726 389.272461,588.661011 
	C388.024780,582.779785 390.096344,580.009644 396.264069,580.006409 
	C424.095032,579.991882 451.926025,579.998779 479.756989,580.000916 
	C486.734802,580.001465 489.810852,582.295410 490.914459,589.085815 
	C493.400818,604.384155 495.546875,619.737732 498.035889,635.035583 
	C501.228638,654.658264 504.716309,674.233032 507.896759,693.857605 
	C510.090118,707.391418 511.851196,720.995056 514.035767,734.530396 
	C516.527893,749.971375 519.317322,765.364075 521.896118,780.791443 
	C523.347656,789.474976 524.564575,798.198364 526.081482,806.869812 
	C526.280701,808.008301 527.637573,808.944275 528.458252,809.974060 
	C529.322693,808.972778 530.722656,808.085510 530.964050,806.951599 
	C532.452576,799.959900 533.763306,792.926941 534.975159,785.880554 
	C537.019165,773.995728 538.994812,762.098633 540.903931,750.191406 
	C542.196106,742.132690 543.324890,734.047852 544.727173,725.573975 
z"/>
<path fill="#535B6F" opacity="1.000000" stroke="none" 
	d="
M1303.000000,522.892883 
	C1303.000000,504.241760 1302.994507,486.075684 1303.002441,467.909607 
	C1303.006104,459.502258 1306.950317,456.621643 1315.282104,458.026398 
	C1323.341309,459.385193 1331.506470,460.172882 1339.648804,460.970306 
	C1354.194580,462.394836 1368.738159,463.989532 1383.322266,464.817871 
	C1391.358887,465.274353 1399.504150,464.620880 1407.546265,463.880127 
	C1412.318604,463.440582 1414.067749,459.235931 1414.921143,455.135376 
	C1415.820435,450.813538 1413.967529,447.306671 1410.211548,445.067017 
	C1395.820923,436.486053 1381.356323,428.028839 1366.960571,419.456451 
	C1355.074341,412.378510 1342.846680,405.782318 1331.481323,397.942078 
	C1311.991455,384.497406 1299.181152,366.235718 1294.981689,342.513397 
	C1291.613281,323.485779 1291.505371,304.608398 1297.959473,286.124695 
	C1304.776978,266.600006 1318.862183,254.001572 1337.385620,246.077332 
	C1351.571777,240.008469 1366.432739,236.402832 1381.953247,235.996368 
	C1395.382935,235.644623 1408.901855,234.209503 1422.223999,235.256058 
	C1443.895020,236.958466 1465.446899,240.221924 1487.027466,242.995590 
	C1492.173096,243.656967 1497.254883,244.888535 1502.326782,246.032150 
	C1508.988403,247.534180 1511.998291,251.420609 1511.999146,258.203827 
	C1512.001709,276.703217 1512.000000,295.202637 1512.000000,313.702026 
	C1512.000000,313.868683 1512.000366,314.035339 1511.999878,314.201996 
	C1511.973267,323.662231 1508.567139,326.479095 1499.259399,324.981689 
	C1494.256226,324.176788 1489.224854,323.419250 1484.176270,323.048798 
	C1472.992554,322.228058 1461.794678,321.565094 1450.593628,321.021545 
	C1434.902832,320.260040 1419.202637,319.693298 1403.509277,318.980072 
	C1399.742676,318.808899 1396.399780,319.528198 1395.264893,323.549438 
	C1394.181763,327.387726 1396.806763,329.677856 1399.769043,331.312134 
	C1411.180542,337.607880 1422.676636,343.750092 1434.097656,350.028534 
	C1450.369629,358.973724 1466.969482,367.393951 1482.762939,377.120331 
	C1503.652954,389.985352 1516.156372,409.220490 1519.846313,433.451111 
	C1523.922363,460.216400 1518.897583,485.316193 1502.734253,507.495270 
	C1495.412231,517.542419 1485.890747,525.379944 1475.031982,531.453003 
	C1457.408569,541.309631 1438.622559,547.324585 1418.309937,547.995911 
	C1406.714722,548.379211 1395.070435,549.481323 1383.528931,548.830017 
	C1359.710693,547.486145 1336.101685,544.248108 1313.216187,537.060669 
	C1303.384155,533.972839 1303.000122,533.376099 1303.000000,522.892883 
z"/>
<path fill="#535B6F" opacity="1.000000" stroke="none" 
	d="
M464.001099,349.801697 
	C463.654480,354.141418 466.566833,352.958740 468.414368,352.962097 
	C497.909851,353.015839 527.405457,352.999969 556.901001,353.000031 
	C557.900879,353.000031 558.901794,352.969696 559.900391,353.005463 
	C564.897949,353.184509 567.951782,356.034729 567.969910,360.985321 
	C568.042114,380.648773 568.044006,400.312775 567.969849,419.976227 
	C567.950256,425.173492 564.846130,427.994873 559.582520,427.996246 
	C529.753662,428.004028 499.924774,428.000000 470.095917,428.000000 
	C468.281433,428.000000 466.466949,428.000000 464.075470,428.000000 
	C464.075470,437.841766 463.684113,447.456421 464.226379,457.018127 
	C464.537628,462.506775 468.699524,464.989594 475.249084,464.993317 
	C502.744965,465.009033 530.240845,464.998444 557.736694,465.000977 
	C565.507263,465.001678 567.997986,467.508179 567.999084,475.324829 
	C568.001831,494.821899 567.778748,514.322754 568.109741,533.814148 
	C568.240723,541.529602 564.474854,544.306274 557.353577,544.897949 
	C541.424377,546.221436 525.460327,547.236877 509.491150,547.935181 
	C494.575958,548.587402 479.578064,549.640076 464.720978,548.758057 
	C445.406006,547.611389 426.065033,545.973022 408.355591,536.226624 
	C388.340942,525.211548 375.479980,508.815857 370.253448,487.005524 
	C367.491394,475.479492 366.315186,463.340668 366.183411,451.458984 
	C365.714081,409.137207 365.729309,366.804413 366.142792,324.481476 
	C366.293091,309.094086 369.064789,293.952545 376.449341,280.070343 
	C387.606140,259.096802 404.880035,245.821182 427.790344,240.072021 
	C442.479156,236.385971 457.510956,234.841827 472.665405,235.027206 
	C490.428925,235.244507 508.201324,235.384659 525.947815,236.103973 
	C537.093079,236.555725 548.212341,237.875580 559.313904,239.077362 
	C564.215576,239.608002 568.303711,243.463806 568.180847,248.868927 
	C567.726379,268.855591 568.002075,288.858826 567.998840,308.855835 
	C567.997803,315.689301 564.750916,318.986237 557.879211,318.991455 
	C530.549988,319.012177 503.220734,318.995422 475.891510,319.002686 
	C467.246674,319.005005 464.016205,322.225861 464.002014,330.824493 
	C463.991821,336.989807 464.000122,343.155121 464.001099,349.801697 
z"/>
<path fill="#535B6F" opacity="1.000000" stroke="none" 
	d="
M1125.876465,812.765991 
	C1125.979980,833.019592 1125.673462,852.856873 1126.131592,872.676453 
	C1126.365356,882.790710 1121.110107,885.194214 1113.399536,885.914001 
	C1099.473755,887.213928 1085.513794,888.355164 1071.542236,888.898621 
	C1058.867432,889.391724 1046.108643,889.706848 1033.476807,888.820801 
	C1017.717041,887.715454 1001.922913,885.475403 987.709412,877.869263 
	C965.528564,865.999512 951.525513,847.608887 947.167603,822.764099 
	C945.132996,811.164307 944.185364,799.234924 944.134644,787.449036 
	C943.853577,722.127563 943.999451,656.804260 944.000549,591.481628 
	C944.000732,582.991028 947.009033,580.000122 955.534302,580.000061 
	C981.196777,579.999939 1006.859253,579.993164 1032.521729,580.004517 
	C1039.349487,580.007568 1041.996094,582.693054 1041.996582,589.605713 
	C1042.002197,657.261353 1041.977051,724.916931 1042.023193,792.572571 
	C1042.030762,803.568359 1045.287109,805.763977 1055.567749,805.914978 
	C1075.393555,806.206299 1095.229492,806.182922 1115.054932,805.879089 
	C1120.412964,805.796997 1123.760498,807.602051 1125.876465,812.765991 
z"/>
<path fill="#535B6F" opacity="1.000000" stroke="none" 
	d="
M981.000000,437.000000 
	C981.000000,469.986053 981.002136,502.472137 980.998474,534.958191 
	C980.997620,542.498596 978.499817,544.997131 970.962585,544.998413 
	C945.640137,545.002625 920.317261,544.922729 894.995422,545.049194 
	C887.808533,545.085083 883.818909,541.712097 883.838135,534.278931 
	C884.083557,439.320282 883.999512,344.360809 884.000610,249.401535 
	C884.000732,241.441193 886.385925,239.002106 894.177551,239.001175 
	C919.833252,238.998108 945.488892,238.996429 971.144592,239.002274 
	C978.473694,239.003937 980.999512,241.469330 980.999573,248.580643 
	C981.000305,311.220428 981.000000,373.860229 981.000000,437.000000 
z"/>
<path fill="#535B6F" opacity="1.000000" stroke="none" 
	d="
M216.341888,669.255432 
	C212.988739,684.325439 204.209320,695.086243 190.633072,700.423279 
	C174.701782,706.686279 157.937180,706.834656 142.428574,698.590393 
	C127.936234,690.886292 120.644638,677.727356 119.093132,661.609314 
	C118.238670,652.732605 117.897636,643.754211 118.107872,634.840149 
	C118.384232,623.122131 120.866745,611.814026 128.007767,602.123230 
	C136.371979,590.772400 147.653549,584.414307 161.822189,584.081421 
	C171.461990,583.854919 181.053680,583.408569 190.423172,587.589172 
	C205.466965,594.301514 215.074738,605.609985 216.633896,621.487427 
	C218.171097,637.141357 216.723557,653.088440 216.341888,669.255432 
M147.000000,639.516846 
	C147.000015,645.343445 146.836502,651.175781 147.042343,656.995056 
	C147.287292,663.920654 149.559525,670.470825 154.709595,674.974731 
	C165.446381,684.364441 183.711349,680.917175 187.684952,665.702576 
	C189.966888,656.965271 189.676331,647.471680 189.862778,638.304626 
	C189.967468,633.157654 189.268707,627.822388 187.905914,622.853394 
	C185.083878,612.563843 178.717499,609.293152 169.545105,608.101013 
	C161.190247,607.015137 154.244110,611.748352 149.972260,619.822266 
	C146.810638,625.797852 146.903000,632.121399 147.000000,639.516846 
z"/>
<path fill="#535B6F" opacity="1.000000" stroke="none" 
	d="
M275.009277,586.950195 
	C287.899445,582.299316 300.865448,582.083740 313.063232,586.369812 
	C324.249237,590.300232 330.412567,600.165161 330.822662,611.911011 
	C331.726959,637.814087 331.736694,663.750183 331.972900,689.674011 
	C332.107941,704.494385 333.494995,702.949158 318.664551,703.009827 
	C302.950226,703.074158 303.942444,704.089966 303.985992,688.183167 
	C304.043030,667.353271 304.038818,646.522827 303.955597,625.693115 
	C303.943939,622.775574 303.523376,619.823242 302.958618,616.952576 
	C302.002777,612.094299 298.045227,608.529785 293.175659,608.028137 
	C283.556396,607.037231 274.584229,609.349609 266.313507,614.101135 
	C264.985840,614.863892 264.105865,617.512939 264.096008,619.296021 
	C263.955353,644.791260 264.001556,670.287537 263.998901,695.783569 
	C263.998230,702.061951 263.132935,702.957397 256.917389,702.993835 
	C251.751694,703.024109 246.583298,702.903564 241.420624,703.031860 
	C237.669144,703.125061 235.966888,701.593933 235.972031,697.755554 
	C236.019974,661.927856 236.020004,626.100098 235.971848,590.272400 
	C235.966705,586.454529 237.622467,584.861755 241.392792,584.969910 
	C245.888397,585.098816 250.390533,584.999634 254.889832,585.000061 
	C262.693787,585.000916 262.693787,585.001160 263.217743,592.375122 
	C266.993042,590.591675 270.801392,588.792542 275.009277,586.950195 
z"/>
<path fill="#535B6F" opacity="1.000000" stroke="none" 
	d="
M61.222347,616.453491 
	C55.745129,630.052734 56.367813,643.778748 57.830372,657.562988 
	C58.139713,660.478455 58.383091,663.430237 59.050617,666.272766 
	C60.844017,673.909729 68.503616,680.661133 76.308105,680.074158 
	C85.037964,679.417664 93.817406,679.448120 102.562042,678.948181 
	C106.530769,678.721313 108.491714,679.738159 108.073997,684.169617 
	C107.716225,687.965271 107.755257,691.841431 108.067879,695.645081 
	C108.389038,699.552673 106.852814,701.448914 103.070641,702.034851 
	C100.031509,702.505737 97.038773,703.858643 94.030418,703.843323 
	C81.872238,703.781494 69.647377,705.902100 57.651291,701.384155 
	C41.005405,695.115051 32.395317,682.531616 30.248465,665.846985 
	C28.650644,653.429321 28.274284,640.636658 29.234995,628.155884 
	C30.910915,606.383606 40.998657,588.701965 65.844818,584.497986 
	C78.349686,582.382080 91.596703,582.827759 104.211502,586.280029 
	C105.791611,586.712524 107.633224,589.312134 107.828110,591.076172 
	C108.336906,595.681763 107.876854,600.385132 108.041977,605.041077 
	C108.152771,608.165161 106.783707,609.159058 103.855919,609.024353 
	C95.104973,608.621582 86.348297,608.344849 77.594757,607.996033 
	C70.696159,607.721191 65.290611,610.390564 61.222347,616.453491 
z"/>
<path fill="#535B6F" opacity="1.000000" stroke="none" 
	d="
M1583.278809,966.329956 
	C1588.306152,958.871155 1593.111450,951.706726 1597.941650,944.559204 
	C1601.263916,939.642883 1601.279419,939.653320 1607.755737,940.415222 
	C1607.755737,959.456909 1607.755737,978.522949 1607.755737,997.794128 
	C1605.235962,997.794128 1602.957031,997.794128 1600.173096,997.794128 
	C1600.173096,984.126465 1600.173096,970.434998 1600.173096,955.417725 
	C1593.971313,964.577515 1588.531982,972.582825 1583.124146,980.609436 
	C1579.858154,985.456604 1576.386719,985.494080 1573.083618,980.591736 
	C1567.659424,972.541260 1562.290039,964.453857 1556.097656,955.184753 
	C1556.097656,970.214539 1556.097656,983.871033 1556.097656,997.759521 
	C1553.309082,997.759521 1551.030518,997.759521 1548.372437,997.759521 
	C1548.372437,978.809265 1548.372437,959.755432 1548.372437,940.347229 
	C1552.610840,939.464539 1555.676147,939.884888 1558.478638,944.588074 
	C1564.463013,954.631104 1571.421875,964.093384 1578.250366,974.191223 
	C1580.040039,971.382507 1581.553589,969.007019 1583.278809,966.329956 
z"/>
<path fill="#535B6F" opacity="1.000000" stroke="none" 
	d="
M1014.723816,964.665100 
	C1010.824341,970.336487 1007.132080,975.701965 1003.447876,981.072998 
	C1000.554626,985.290649 996.887878,985.233032 993.986511,980.908691 
	C988.560547,972.821716 983.139282,964.731567 977.094604,955.715698 
	C977.094604,970.303162 977.094604,983.936218 977.094604,997.778320 
	C974.270813,997.778320 971.990784,997.778320 969.352173,997.778320 
	C969.352173,978.779114 969.352173,959.719666 969.352173,940.420959 
	C973.492126,939.173950 976.371338,940.110779 978.944824,944.254028 
	C985.121216,954.197876 991.865417,963.789001 998.751648,974.076843 
	C1002.836426,968.136780 1006.853577,962.347839 1010.812439,956.519287 
	C1013.369934,952.754089 1016.189209,949.109558 1018.259338,945.085876 
	C1020.549011,940.635193 1023.566650,938.802612 1028.706543,940.489258 
	C1028.706543,959.318420 1028.706543,978.382385 1028.706543,997.723633 
	C1026.252441,997.723633 1023.863586,997.723633 1021.183594,997.723633 
	C1021.183594,983.962097 1021.183594,970.350708 1021.183594,956.739319 
	C1020.874146,956.585083 1020.564636,956.430847 1020.255188,956.276611 
	C1018.481567,958.971619 1016.708008,961.666626 1014.723816,964.665100 
z"/>
<path fill="#535B6F" opacity="1.000000" stroke="none" 
	d="
M437.945923,996.646973 
	C434.553802,997.993469 431.579712,999.464539 428.616180,995.392639 
	C418.565735,981.583374 408.072968,968.096069 397.136169,953.677551 
	C397.136169,968.853699 397.136169,983.169434 397.136169,997.738892 
	C394.223846,997.738892 391.835785,997.738892 389.248810,997.738892 
	C389.248810,978.480042 389.248810,959.421387 389.248810,940.501160 
	C395.040558,938.484009 398.162445,941.344971 401.228851,945.609009 
	C410.367767,958.317322 419.846405,970.781311 429.758209,984.101196 
	C429.758209,969.104980 429.758209,954.844543 429.758209,940.296631 
	C432.707581,940.296631 435.095184,940.296631 437.987457,940.296631 
	C437.987457,958.984497 437.987457,977.583618 437.945923,996.646973 
z"/>
<path fill="#535B6F" opacity="1.000000" stroke="none" 
	d="
M1621.975952,983.882263 
	C1612.884888,966.748230 1619.873169,943.189880 1641.673218,939.345093 
	C1664.690186,935.285583 1682.113892,950.586243 1678.160278,975.043274 
	C1675.238281,993.118347 1658.090698,1001.432861 1642.204712,998.257874 
	C1633.107788,996.439880 1626.784790,991.775635 1621.975952,983.882263 
M1667.973145,956.856934 
	C1663.025635,949.818054 1656.107666,945.624451 1647.660889,946.182190 
	C1634.031616,947.082092 1623.662964,958.673218 1626.879272,973.726013 
	C1628.621216,981.879150 1632.921753,987.508240 1640.642944,989.893433 
	C1648.776001,992.406006 1657.045898,992.151733 1663.582397,985.789490 
	C1671.913696,977.680237 1672.910645,968.022888 1667.973145,956.856934 
z"/>
<path fill="#535B6F" opacity="1.000000" stroke="none" 
	d="
M706.141235,994.024841 
	C697.097534,987.924255 693.857300,979.041382 693.042786,969.055176 
	C691.813416,953.982666 705.760071,939.213562 720.870667,938.936523 
	C730.586914,938.758362 739.661804,940.058777 746.341187,947.903015 
	C754.171936,957.099548 755.903320,967.692566 752.384644,979.127014 
	C749.051208,989.959656 741.734192,995.991272 730.481873,998.159485 
	C721.759033,999.840210 714.012634,998.317139 706.141235,994.024841 
M719.956177,990.994751 
	C721.120850,990.996521 722.293274,990.910950 723.449036,991.013184 
	C740.880981,992.554810 751.498108,972.553284 743.154358,957.547974 
	C737.262695,946.952515 725.945923,944.335876 716.015015,947.632080 
	C705.374084,951.163879 700.346191,961.349365 701.850525,972.359192 
	C703.292114,982.910278 709.452820,988.357483 719.956177,990.994751 
z"/>
<path fill="#535B6F" opacity="1.000000" stroke="none" 
	d="
M641.058899,957.075562 
	C645.340942,969.219543 643.839539,980.401367 635.617188,989.578125 
	C628.198120,997.858337 618.360168,999.837524 607.035461,998.264221 
	C583.068420,994.934570 577.692871,968.721069 587.087463,951.867981 
	C592.464661,942.221741 608.157166,936.540588 619.655212,939.242554 
	C629.686157,941.599670 637.079224,946.956787 641.058899,957.075562 
M610.997742,946.504578 
	C610.536133,946.660583 610.083984,946.911438 609.611511,946.958679 
	C600.373840,947.882019 593.384399,953.798218 591.183533,962.586121 
	C588.942322,971.535522 592.981201,982.956604 599.982788,987.468262 
	C607.626221,992.393494 619.899902,992.236633 626.337830,987.131470 
	C634.163330,980.925842 636.966980,971.054565 634.047424,961.545349 
	C630.628479,950.409485 622.158691,946.920227 610.997742,946.504578 
z"/>
<path fill="#535B6F" opacity="1.000000" stroke="none" 
	d="
M1265.043457,999.000000 
	C1246.118896,998.485535 1234.318726,985.902710 1235.127563,966.777344 
	C1235.743042,952.226318 1245.508911,937.227966 1268.954956,939.056885 
	C1285.746460,940.366760 1295.732178,951.545105 1295.764771,969.256287 
	C1295.796021,986.259766 1284.016968,998.835144 1265.043457,999.000000 
M1263.028442,946.472412 
	C1249.459961,947.881165 1243.442505,958.393311 1243.068115,967.565918 
	C1242.571655,979.729370 1251.025146,991.824158 1266.530518,991.179260 
	C1281.316528,990.564331 1289.343384,978.214783 1287.735229,966.523071 
	C1285.895752,953.150024 1278.012573,946.821777 1263.028442,946.472412 
z"/>
<path fill="#535B6F" opacity="1.000000" stroke="none" 
	d="
M461.321289,943.176819 
	C476.120789,935.082031 497.939453,937.887512 505.473419,955.106323 
	C512.620117,971.440125 506.759674,994.662659 484.261505,998.223816 
	C466.851654,1000.979553 451.704102,992.595520 448.452332,975.662476 
	C446.116241,963.497803 449.147675,950.834106 461.321289,943.176819 
M462.509308,985.006409 
	C470.346802,993.488525 485.634979,993.535583 494.034210,985.089539 
	C502.772095,976.302979 502.993500,961.222900 493.604767,952.187622 
	C485.299469,944.194946 470.961548,944.154114 462.555237,952.204834 
	C453.723511,960.663025 453.248230,976.385132 462.509308,985.006409 
z"/>
<path fill="#535B6F" opacity="1.000000" stroke="none" 
	d="
M1052.431885,994.771057 
	C1034.125000,983.257507 1034.504150,953.454468 1052.474976,943.122681 
	C1067.663086,934.390747 1093.164551,937.503174 1098.410278,960.426514 
	C1101.830444,975.372131 1098.170044,991.291443 1079.247437,997.332642 
	C1070.046631,1000.270020 1061.287354,999.136230 1052.431885,994.771057 
M1089.955566,959.924011 
	C1086.017700,950.491028 1078.190918,945.758423 1068.730225,946.253052 
	C1049.421997,947.262573 1043.049316,964.438477 1049.025635,978.832642 
	C1053.361328,989.275085 1066.930786,994.164612 1077.830322,989.634949 
	C1089.861206,984.635010 1093.820312,973.028381 1089.955566,959.924011 
z"/>
<path fill="#535B6F" opacity="1.000000" stroke="none" 
	d="
M784.000000,958.000977 
	C784.000000,951.867859 784.000000,946.234436 784.000000,939.546936 
	C794.508606,940.054749 804.856567,939.516113 814.780029,941.316650 
	C825.421204,943.247375 832.538574,951.825867 833.854614,962.947510 
	C834.738953,970.421082 834.596008,978.127441 830.482117,984.974426 
	C825.306824,993.587830 816.950073,997.082581 807.547974,997.868286 
	C799.964294,998.502014 792.285400,997.996704 784.000000,997.996704 
	C784.000000,984.660767 784.000000,971.580688 784.000000,958.000977 
M801.371460,947.000000 
	C798.294678,947.000000 795.217896,947.000000 792.400391,947.000000 
	C792.400391,961.804810 792.400391,975.844360 792.400391,990.000000 
	C796.790405,990.000000 800.780701,989.998596 804.771057,990.000305 
	C821.497742,990.007446 829.165466,977.417847 825.302063,961.882935 
	C822.644897,951.198242 814.815918,947.905151 801.371460,947.000000 
z"/>
<path fill="#535B6F" opacity="1.000000" stroke="none" 
	d="
M1367.000000,978.129150 
	C1366.917236,976.200623 1366.834473,974.757690 1366.743286,973.169067 
	C1355.810669,973.169067 1345.204712,973.169067 1334.092773,973.169067 
	C1334.092773,981.375488 1334.092773,989.446228 1334.092773,997.751404 
	C1331.318970,997.751404 1329.044678,997.751404 1326.380981,997.751404 
	C1326.380981,978.806152 1326.380981,959.746582 1326.380981,940.342590 
	C1328.623169,940.342590 1331.015015,940.342590 1333.916138,940.342590 
	C1333.916138,948.359375 1333.916138,956.434448 1333.916138,964.747437 
	C1345.018555,964.747437 1355.625854,964.747437 1366.746094,964.747437 
	C1366.746094,956.802856 1366.746094,948.733398 1366.746094,940.336853 
	C1369.632568,940.336853 1372.021362,940.336853 1374.713135,940.336853 
	C1374.713135,959.379700 1374.713135,978.446106 1374.713135,997.756592 
	C1372.306519,997.756592 1370.028687,997.756592 1367.000000,997.756592 
	C1367.000000,991.459412 1367.000000,985.037048 1367.000000,978.129150 
z"/>
<path fill="#535B6F" opacity="1.000000" stroke="none" 
	d="
M1515.042969,947.000000 
	C1511.906860,947.000000 1509.264648,947.000000 1506.312744,947.000000 
	C1506.312744,953.015137 1506.312744,958.739990 1506.312744,964.970154 
	C1515.780518,964.970154 1525.184570,964.970154 1534.788086,964.970154 
	C1534.788086,967.412476 1534.788086,969.359680 1534.788086,971.804932 
	C1525.439941,971.804932 1516.027832,971.804932 1506.312378,971.804932 
	C1506.312378,978.015625 1506.312378,983.740479 1506.312378,989.972290 
	C1516.780762,989.972290 1527.182617,989.972290 1537.786987,989.972290 
	C1537.786987,992.751709 1537.786987,995.031738 1537.786987,997.656860 
	C1524.752441,997.656860 1511.685303,997.656860 1498.307739,997.656860 
	C1498.307739,978.639099 1498.307739,959.581909 1498.307739,940.261597 
	C1511.126709,940.261597 1523.855835,940.261597 1536.792480,940.261597 
	C1536.792480,942.423340 1536.792480,944.371155 1536.792480,947.000000 
	C1529.740356,947.000000 1522.638550,947.000000 1515.042969,947.000000 
z"/>
<path fill="#535B6F" opacity="1.000000" stroke="none" 
	d="
M1391.984009,993.083069 
	C1390.774170,999.645081 1386.231079,997.916870 1381.324097,997.809204 
	C1389.773193,978.297913 1398.002197,959.294983 1406.213257,940.333435 
	C1414.620239,939.476624 1414.710571,939.436829 1417.937744,946.763000 
	C1425.329346,963.542969 1432.623779,980.365662 1439.968994,997.196777 
	C1432.543335,999.060120 1432.030396,998.840027 1429.054321,992.215637 
	C1428.256958,990.440674 1427.958984,988.337585 1426.823120,986.849854 
	C1425.837402,985.558594 1424.021729,984.189880 1422.519165,984.126343 
	C1415.703369,983.838135 1408.857300,984.239197 1402.044678,983.916016 
	C1397.514771,983.701050 1394.293457,984.454285 1393.646484,989.656921 
	C1393.514648,990.716858 1392.607910,991.680420 1391.984009,993.083069 
M1418.076294,966.423096 
	C1415.727539,960.949768 1413.378906,955.476440 1410.650391,949.117737 
	C1406.554688,958.964783 1402.882568,967.793701 1399.139771,976.792358 
	C1407.182007,976.792358 1414.459839,976.792358 1422.436523,976.792358 
	C1421.685669,974.917664 1421.102539,973.466248 1420.522949,972.013489 
	C1419.863037,970.359192 1419.206177,968.703674 1418.076294,966.423096 
z"/>
<path fill="#535B6F" opacity="1.000000" stroke="none" 
	d="
M878.858582,947.000000 
	C869.758240,947.000000 861.142395,947.000000 852.265381,947.000000 
	C852.265381,953.106689 852.265381,958.824341 852.265381,964.866333 
	C861.719116,964.866333 870.982788,964.866333 880.621033,964.866333 
	C880.621033,967.231445 880.621033,969.285645 880.621033,971.824585 
	C871.410217,971.824585 862.010498,971.824585 852.309570,971.824585 
	C852.309570,978.014832 852.309570,983.733215 852.309570,989.942749 
	C862.753113,989.942749 873.142822,989.942749 883.761230,989.942749 
	C883.761230,992.699463 883.761230,994.974915 883.761230,997.626465 
	C871.150635,997.626465 858.433838,997.626465 845.357056,997.626465 
	C845.357056,978.761719 845.357056,959.724548 845.357056,940.342773 
	C857.939697,940.342773 870.650574,940.342773 883.681885,940.342773 
	C883.681885,942.337952 883.681885,944.391174 883.681885,946.764648 
	C882.240662,946.842834 880.791931,946.921387 878.858582,947.000000 
z"/>
<path fill="#535B6F" opacity="1.000000" stroke="none" 
	d="
M1131.414551,990.981689 
	C1133.338989,990.357849 1135.335938,990.150574 1136.202637,989.051819 
	C1137.814819,987.008240 1140.347046,983.717102 1139.669922,982.248779 
	C1138.227661,979.121521 1135.400391,976.070251 1132.365723,974.375000 
	C1128.034790,971.955566 1122.993652,970.821350 1118.283325,969.064575 
	C1109.217407,965.683044 1104.971558,960.458679 1106.081421,953.096802 
	C1107.374512,944.518433 1111.781128,940.593628 1121.884644,939.188477 
	C1126.825439,938.501343 1132.284058,938.842773 1137.057861,940.248352 
	C1145.345825,942.688599 1144.277466,941.988953 1143.730835,950.267334 
	C1138.715698,948.941772 1133.706909,946.987244 1128.553833,946.468628 
	C1124.871826,946.098022 1120.578613,946.845459 1117.302124,948.535950 
	C1112.112183,951.213623 1113.138794,957.935486 1119.187256,960.933716 
	C1124.102783,963.370422 1129.367065,965.140442 1134.557495,966.977600 
	C1143.600708,970.178467 1148.129395,975.850525 1148.134155,982.926636 
	C1148.140625,992.597473 1141.578003,996.317566 1135.248657,997.895752 
	C1125.171997,1000.408203 1115.443115,998.914185 1106.179932,993.528870 
	C1106.179932,991.270264 1106.179932,988.808105 1106.179932,985.601624 
	C1114.080078,990.277405 1122.343872,991.615967 1131.414551,990.981689 
z"/>
<path fill="#535B6F" opacity="1.000000" stroke="none" 
	d="
M537.907532,994.979431 
	C536.811768,992.167236 536.120544,989.435669 535.716675,987.839783 
	C543.224426,988.924988 550.382812,990.148438 557.590637,990.892761 
	C559.915344,991.132812 562.692566,990.664673 564.671509,989.508423 
	C566.519897,988.428589 568.644836,986.050598 568.723816,984.163452 
	C568.822144,981.814392 567.595337,978.158020 565.805054,977.209412 
	C559.691162,973.969543 553.129028,971.539551 546.641968,969.050842 
	C541.129639,966.935974 537.165039,963.792725 535.926147,957.579712 
	C534.239075,949.119568 538.441406,942.685364 545.048645,940.551636 
	C553.584045,937.795166 562.331909,937.905090 570.334290,942.059814 
	C572.382935,943.123474 572.852600,947.228271 574.366333,950.657837 
	C568.191467,948.968628 563.564636,946.893616 558.843201,946.649719 
	C554.526733,946.426636 549.663025,947.323853 545.850891,949.294922 
	C541.440002,951.575684 542.842957,958.393250 548.212952,960.944824 
	C554.495483,963.929993 561.198242,966.025696 567.507019,968.961975 
	C575.916748,972.876160 578.203796,977.443787 576.984436,986.325317 
	C576.150940,992.396240 570.780823,996.486816 563.106567,998.101074 
	C554.377991,999.937012 546.262207,998.632324 537.907532,994.979431 
z"/>
<path fill="#535B6F" opacity="1.000000" stroke="none" 
	d="
M1715.421509,997.808777 
	C1707.510498,999.608704 1700.075317,999.265564 1692.761963,996.906189 
	C1685.478027,994.556396 1685.437988,994.420837 1686.419922,985.792480 
	C1693.531006,990.422485 1701.320435,991.819519 1709.417480,990.904663 
	C1713.166382,990.481018 1717.626953,990.125549 1718.909180,985.453674 
	C1720.174561,980.843201 1718.102173,977.489563 1712.906250,975.016174 
	C1710.427612,973.836304 1707.789917,972.993347 1705.234619,971.971924 
	C1701.019653,970.287292 1696.679321,968.848877 1692.633179,966.824524 
	C1685.926270,963.469055 1685.389282,957.237061 1686.044312,950.762817 
	C1686.523315,946.028870 1691.416748,940.723633 1696.847656,940.145142 
	C1702.779175,939.513184 1708.930176,939.304749 1714.804199,940.158691 
	C1723.241089,941.385010 1723.236450,941.950928 1722.862793,949.924927 
	C1718.576782,948.936890 1714.267090,947.596069 1709.858276,947.038635 
	C1706.425293,946.604614 1702.647095,946.458130 1699.444458,947.491882 
	C1697.254883,948.198547 1695.015869,950.874695 1694.184937,953.171814 
	C1692.926147,956.651001 1694.759888,959.604126 1698.310059,961.035156 
	C1704.169678,963.396912 1710.051514,965.706604 1715.962524,967.936035 
	C1724.238892,971.057678 1727.886108,976.063049 1727.084351,985.087830 
	C1726.566040,990.921753 1723.261597,995.081604 1715.421509,997.808777 
z"/>
<path fill="#535B6F" opacity="1.000000" stroke="none" 
	d="
M927.925537,998.008728 
	C913.064941,1002.434265 893.194458,991.658936 890.762451,975.805176 
	C889.152954,965.313721 890.956848,956.178406 897.478943,948.369446 
	C902.260620,942.644226 909.205750,939.573303 916.784241,939.101196 
	C920.832947,938.848999 925.046448,939.167297 929.009766,940.033020 
	C938.718140,942.153503 937.058899,940.967346 936.759277,950.446228 
	C920.157837,944.605286 908.472717,945.860413 902.593567,955.104675 
	C896.539429,964.623962 895.718384,972.761047 903.103455,983.262756 
	C908.859131,991.447388 922.664001,992.875488 937.354614,987.228638 
	C938.984436,995.002563 938.152344,995.999390 927.925537,998.008728 
z"/>
<path fill="#535B6F" opacity="1.000000" stroke="none" 
	d="
M1461.112183,997.062866 
	C1441.812256,990.772461 1437.873169,972.210327 1442.711548,957.765015 
	C1448.195312,941.393005 1469.202759,933.388062 1487.909424,942.772339 
	C1487.909424,945.213745 1487.909424,947.701111 1487.909424,950.711731 
	C1474.437378,944.033142 1461.667969,943.846191 1452.282227,956.835083 
	C1447.208862,963.855957 1446.690308,975.119507 1453.939331,983.305481 
	C1459.609131,989.708008 1471.508911,995.019592 1487.462646,987.545959 
	C1488.703735,995.094055 1488.339233,995.930847 1481.745728,997.632446 
	C1474.994507,999.374878 1468.195068,999.837830 1461.112183,997.062866 
z"/>
<path fill="#535B6F" opacity="1.000000" stroke="none" 
	d="
M661.000000,961.000122 
	C661.000000,970.794922 661.000000,980.089722 661.000000,989.874023 
	C671.677124,989.874023 682.068787,989.874023 692.724854,989.874023 
	C692.724854,992.748352 692.724854,995.136047 692.724854,997.764160 
	C679.641907,997.764160 666.710144,997.764160 653.388550,997.764160 
	C653.388550,978.825256 653.388550,959.786682 653.388550,940.373291 
	C655.564392,940.373291 657.954895,940.373291 661.000000,940.373291 
	C661.000000,946.978455 661.000000,953.739258 661.000000,961.000122 
z"/>
<path fill="#535B6F" opacity="1.000000" stroke="none" 
	d="
M1203.000000,982.922058 
	C1203.000000,985.389282 1203.000000,987.366333 1203.000000,989.836548 
	C1213.303833,989.836548 1223.362061,989.836548 1233.705322,989.836548 
	C1233.705322,992.710999 1233.705322,995.099121 1233.705322,997.747009 
	C1220.891968,997.747009 1208.174805,997.747009 1195.247803,997.747009 
	C1195.247803,978.491333 1195.247803,959.447083 1195.247803,940.201782 
	C1197.770386,940.201782 1200.048218,940.201782 1203.000000,940.201782 
	C1203.000000,954.272461 1203.000000,968.352173 1203.000000,982.922058 
z"/>
<path fill="#535B6F" opacity="1.000000" stroke="none" 
	d="
M947.000000,978.999573 
	C947.000000,965.861328 947.000000,953.223022 947.000000,940.294006 
	C949.714844,940.294006 952.105164,940.294006 954.750977,940.294006 
	C954.750977,959.339722 954.750977,978.281860 954.750977,997.612305 
	C952.462280,997.612305 950.075684,997.612305 947.000000,997.612305 
	C947.000000,991.705811 947.000000,985.602661 947.000000,978.999573 
z"/>
<path fill="#535B6F" opacity="1.000000" stroke="none" 
	d="
M1155.008423,991.870911 
	C1157.471191,990.776001 1159.919556,990.116943 1163.690430,989.101929 
	C1161.454590,996.506897 1159.938232,1002.591736 1157.630005,1008.359741 
	C1157.111572,1009.655273 1153.825195,1009.843262 1150.323608,1011.057861 
	C1152.137329,1003.775818 1153.565796,998.041321 1155.008423,991.870911 
z"/>
<path fill="#535B6F" opacity="1.000000" stroke="none" 
	d="
M1741.197632,990.705200 
	C1743.523682,993.746460 1743.124634,996.536377 1740.154297,997.765869 
	C1738.376587,998.501648 1735.266724,998.043091 1733.813110,996.841797 
	C1732.805420,996.009033 1732.781128,992.334595 1733.773438,991.103394 
	C1735.456055,989.015686 1738.266113,987.550171 1741.197632,990.705200 
z"/>
<path fill="#FFFFFF" opacity="1.000000" stroke="none" 
	d="
M1559.158936,707.391846 
	C1546.379028,707.665466 1533.947510,707.665466 1521.258301,707.665466 
	C1521.258301,690.883240 1521.258301,674.170593 1521.258301,657.978394 
	C1532.507812,657.978394 1543.546509,657.838013 1554.578003,658.054382 
	C1558.445312,658.130188 1562.417725,658.656616 1566.128296,659.722107 
	C1574.205078,662.041443 1577.513428,668.432068 1578.588623,676.147095 
	C1579.927246,685.754700 1579.302979,695.180115 1571.302612,701.895386 
	C1568.138672,704.551086 1563.483398,705.430115 1559.158936,707.391846 
z"/>
<path fill="#FFFFFF" opacity="1.000000" stroke="none" 
	d="
M737.555420,322.220276 
	C748.130676,327.495483 752.195129,336.936371 752.779724,347.198334 
	C754.126648,370.842468 754.751831,394.551147 754.781433,418.234741 
	C754.792480,427.098206 752.677185,436.032928 750.921387,444.813171 
	C748.579285,456.525208 738.017761,464.383392 724.210571,464.941986 
	C716.401184,465.257904 708.568481,464.998993 700.373535,464.998993 
	C700.373535,416.449768 700.373535,368.071075 700.373535,318.978149 
	C712.605408,319.717560 725.158203,316.952972 737.555420,322.220276 
z"/>
<path fill="#FFFFFF" opacity="1.000000" stroke="none" 
	d="
M1125.791016,458.334167 
	C1116.242920,452.590485 1112.870605,443.255798 1112.242798,433.672668 
	C1110.815674,411.890076 1110.022339,390.016327 1110.267944,368.194244 
	C1110.394287,356.956573 1111.483398,345.466797 1116.915161,334.917786 
	C1122.632080,323.815277 1136.921021,319.824005 1146.679443,321.356476 
	C1167.094238,324.562469 1171.649902,338.335938 1172.720947,354.422638 
	C1174.174438,376.252106 1174.017334,398.214966 1173.839478,420.114838 
	C1173.760498,429.829498 1172.290283,439.588684 1167.808838,448.565277 
	C1164.022461,456.149780 1157.751099,460.297485 1149.682983,461.942627 
	C1141.447632,463.621857 1133.518433,462.701660 1125.791016,458.334167 
z"/>
<path fill="#FFFFFF" opacity="1.000000" stroke="none" 
	d="
M1293.996338,690.160034 
	C1294.667358,696.944336 1295.800171,703.282837 1295.908569,709.638733 
	C1296.183716,725.778259 1296.491943,741.945862 1295.827881,758.062744 
	C1295.382202,768.880554 1294.631714,779.842407 1289.117065,789.815186 
	C1284.468994,798.220581 1277.439087,802.588135 1268.193359,802.851135 
	C1262.561279,803.011292 1256.547852,802.684509 1251.301758,800.861389 
	C1239.662964,796.816650 1235.909424,786.436768 1234.078369,775.510986 
	C1230.162598,752.146851 1232.150513,728.540283 1232.243774,705.051453 
	C1232.281372,695.611389 1233.851196,686.023132 1237.894287,677.015808 
	C1243.764648,663.937988 1258.521240,660.580750 1269.775635,662.369751 
	C1283.501221,664.551575 1290.532593,673.342224 1293.027100,686.456299 
	C1293.238159,687.565918 1293.664917,688.634460 1293.996338,690.160034 
z"/>
<path fill="#FFFFFF" opacity="1.000000" stroke="none" 
	d="
M807.956665,728.236572 
	C809.239746,737.216431 810.490540,745.752441 811.845581,755.000000 
	C805.975159,755.000000 800.075562,755.000000 794.175964,755.000000 
	C788.361267,755.000000 782.546631,755.000000 775.822693,755.000000 
	C776.639099,748.656189 777.297058,742.592346 778.220276,736.569214 
	C780.071411,724.493103 782.014832,712.430420 784.017700,700.378418 
	C786.285034,686.734924 788.599060,673.098267 791.072510,659.491272 
	C791.343750,657.999023 792.797058,656.721680 793.702148,655.344666 
	C794.707275,656.663086 796.344116,657.864380 796.613953,659.319275 
	C798.248962,668.133179 799.586975,677.002686 800.995300,685.858154 
	C802.863708,697.606506 804.690002,709.361572 806.572754,721.107666 
	C806.932190,723.350647 807.469238,725.565186 807.956665,728.236572 
z"/>
<path fill="#FFFFFF" opacity="1.000000" stroke="none" 
	d="
M147.000000,639.021179 
	C146.903000,632.121399 146.810638,625.797852 149.972260,619.822266 
	C154.244110,611.748352 161.190247,607.015137 169.545105,608.101013 
	C178.717499,609.293152 185.083878,612.563843 187.905914,622.853394 
	C189.268707,627.822388 189.967468,633.157654 189.862778,638.304626 
	C189.676331,647.471680 189.966888,656.965271 187.684952,665.702576 
	C183.711349,680.917175 165.446381,684.364441 154.709595,674.974731 
	C149.559525,670.470825 147.287292,663.920654 147.042343,656.995056 
	C146.836502,651.175781 147.000015,645.343445 147.000000,639.021179 
z"/>
<path fill="#FFFFFF" opacity="1.000000" stroke="none" 
	d="
M1668.061035,957.233154 
	C1672.910645,968.022888 1671.913696,977.680237 1663.582397,985.789490 
	C1657.045898,992.151733 1648.776001,992.406006 1640.642944,989.893433 
	C1632.921753,987.508240 1628.621216,981.879150 1626.879272,973.726013 
	C1623.662964,958.673218 1634.031616,947.082092 1647.660889,946.182190 
	C1656.107666,945.624451 1663.025635,949.818054 1668.061035,957.233154 
z"/>
<path fill="#FFFFFF" opacity="1.000000" stroke="none" 
	d="
M719.516479,990.977051 
	C709.452820,988.357483 703.292114,982.910278 701.850525,972.359192 
	C700.346191,961.349365 705.374084,951.163879 716.015015,947.632080 
	C725.945923,944.335876 737.262695,946.952515 743.154358,957.547974 
	C751.498108,972.553284 740.880981,992.554810 723.449036,991.013184 
	C722.293274,990.910950 721.120850,990.996521 719.516479,990.977051 
z"/>
<path fill="#FFFFFF" opacity="1.000000" stroke="none" 
	d="
M611.365723,946.291504 
	C622.158691,946.920227 630.628479,950.409485 634.047424,961.545349 
	C636.966980,971.054565 634.163330,980.925842 626.337830,987.131470 
	C619.899902,992.236633 607.626221,992.393494 599.982788,987.468262 
	C592.981201,982.956604 588.942322,971.535522 591.183533,962.586121 
	C593.384399,953.798218 600.373840,947.882019 609.611511,946.958679 
	C610.083984,946.911438 610.536133,946.660583 611.365723,946.291504 
z"/>
<path fill="#FFFFFF" opacity="1.000000" stroke="none" 
	d="
M1263.408203,946.272522 
	C1278.012573,946.821777 1285.895752,953.150024 1287.735229,966.523071 
	C1289.343384,978.214783 1281.316528,990.564331 1266.530518,991.179260 
	C1251.025146,991.824158 1242.571655,979.729370 1243.068115,967.565918 
	C1243.442505,958.393311 1249.459961,947.881165 1263.408203,946.272522 
z"/>
<path fill="#FFFFFF" opacity="1.000000" stroke="none" 
	d="
M462.250793,984.747742 
	C453.248230,976.385132 453.723511,960.663025 462.555237,952.204834 
	C470.961548,944.154114 485.299469,944.194946 493.604767,952.187622 
	C502.993500,961.222900 502.772095,976.302979 494.034210,985.089539 
	C485.634979,993.535583 470.346802,993.488525 462.250793,984.747742 
z"/>
<path fill="#FFFFFF" opacity="1.000000" stroke="none" 
	d="
M1089.984131,960.327271 
	C1093.820312,973.028381 1089.861206,984.635010 1077.830322,989.634949 
	C1066.930786,994.164612 1053.361328,989.275085 1049.025635,978.832642 
	C1043.049316,964.438477 1049.421997,947.262573 1068.730225,946.253052 
	C1078.190918,945.758423 1086.017700,950.491028 1089.984131,960.327271 
z"/>
<path fill="#FFFFFF" opacity="1.000000" stroke="none" 
	d="
M801.841797,947.000000 
	C814.815918,947.905151 822.644897,951.198242 825.302063,961.882935 
	C829.165466,977.417847 821.497742,990.007446 804.771057,990.000305 
	C800.780701,989.998596 796.790405,990.000000 792.400391,990.000000 
	C792.400391,975.844360 792.400391,961.804810 792.400391,947.000000 
	C795.217896,947.000000 798.294678,947.000000 801.841797,947.000000 
z"/>
<path fill="#FFFFFF" opacity="1.000000" stroke="none" 
	d="
M1418.312012,966.735901 
	C1419.206177,968.703674 1419.863037,970.359192 1420.522949,972.013489 
	C1421.102539,973.466248 1421.685669,974.917664 1422.436523,976.792358 
	C1414.459839,976.792358 1407.182007,976.792358 1399.139771,976.792358 
	C1402.882568,967.793701 1406.554688,958.964783 1410.650391,949.117737 
	C1413.378906,955.476440 1415.727539,960.949768 1418.312012,966.735901 
z"/>
</svg>