<?xml version="1.0" standalone="no"?>
<!DOCTYPE svg PUBLIC "-//W3C//DTD SVG 20010904//EN"
 "http://www.w3.org/TR/2001/REC-SVG-20010904/DTD/svg10.dtd">
<svg version="1.0" xmlns="http://www.w3.org/2000/svg"
 width="1974.000000pt" height="1016.000000pt" viewBox="0 0 1974.000000 1016.000000"
 preserveAspectRatio="xMidYMid meet">

<g transform="translate(0.000000,1016.000000) scale(0.100000,-0.100000)"
fill="#000000" stroke="none">
<path d="M4480 7800 c-374 -46 -589 -180 -728 -455 -39 -78 -60 -148 -77 -265
-22 -139 -22 -1521 0 -1660 17 -116 38 -187 77 -265 122 -243 320 -384 615
-436 284 -51 1206 -24 1273 36 19 17 20 32 20 367 0 335 -1 349 -20 368 -19
19 -33 20 -462 20 -277 0 -457 4 -481 11 -63 17 -72 41 -75 216 l-4 152 500 3
c475 3 501 4 521 22 21 19 21 26 21 348 0 315 -1 329 -20 348 -19 19 -33 20
-521 20 l-501 0 4 144 c3 128 5 148 24 173 11 15 32 31 45 34 13 4 227 7 475
8 439 1 451 1 472 22 22 20 22 21 20 371 l-3 351 -25 18 c-41 30 -310 50 -720
54 -195 2 -389 0 -430 -5z"/>
<path d="M6735 7803 c-115 -7 -369 -35 -488 -53 -132 -20 -168 -33 -202 -70
-20 -22 -20 -37 -20 -1430 0 -1393 0 -1408 20 -1430 33 -37 65 -48 205 -69
251 -38 434 -52 745 -58 340 -6 461 4 647 51 419 106 691 370 812 787 57 197
61 248 61 719 0 471 -4 521 -62 720 -117 408 -394 680 -798 785 -172 44 -291
55 -593 53 -152 -1 -299 -3 -327 -5z m606 -837 c101 -37 159 -119 184 -262 20
-112 20 -796 0 -908 -17 -96 -55 -176 -101 -215 -60 -48 -122 -63 -291 -69
l-153 -4 0 742 0 742 158 -5 c111 -3 170 -9 203 -21z"/>
<path d="M11145 7794 c-429 -67 -707 -258 -884 -612 -57 -114 -97 -238 -124
-384 -20 -115 -22 -151 -22 -543 0 -362 3 -435 18 -530 59 -350 213 -622 457
-806 79 -60 259 -144 370 -173 173 -46 304 -59 510 -53 202 6 315 25 475 78
331 111 572 362 690 723 64 196 70 259 70 756 0 386 -2 459 -18 550 -48 277
-182 542 -356 702 -171 159 -414 264 -686 297 -122 15 -390 12 -500 -5z m424
-866 c92 -48 139 -147 161 -337 17 -145 8 -692 -13 -783 -43 -184 -121 -257
-283 -266 -100 -5 -169 15 -226 66 -46 42 -70 84 -95 173 -16 57 -18 107 -18
469 0 362 2 412 18 470 32 113 75 173 152 212 79 41 219 39 304 -4z"/>
<path d="M13775 7803 c-197 -24 -347 -67 -480 -136 -113 -59 -238 -184 -287
-287 -67 -139 -93 -312 -78 -504 16 -192 64 -328 165 -471 51 -72 152 -169
232 -223 32 -21 204 -123 383 -227 179 -103 344 -201 368 -217 58 -40 77 -81
63 -135 -14 -52 -49 -80 -109 -89 -58 -9 -315 7 -679 43 -275 26 -283 27 -302
8 -20 -18 -21 -28 -21 -356 0 -185 3 -345 6 -354 10 -24 50 -41 180 -74 279
-70 518 -96 823 -88 268 6 394 30 572 107 92 40 203 107 276 168 116 96 229
280 275 447 18 68 22 107 22 255 1 153 -2 185 -22 253 -57 199 -172 352 -356
476 -39 27 -230 132 -424 235 -393 208 -424 226 -440 261 -14 30 -1 69 27 84
37 20 331 9 793 -29 314 -26 316 -26 328 6 6 14 10 166 10 358 l0 333 -24 22
c-72 68 -637 142 -1056 139 -118 0 -228 -3 -245 -5z"/>
<path d="M313 7750 c-68 -41 -63 75 -61 -1547 l3 -1468 450 0 450 0 12 35 c9
26 12 212 12 698 1 651 1 662 21 662 14 0 62 -64 182 -242 90 -134 178 -260
197 -280 l33 -38 162 0 c130 0 166 3 184 15 12 9 98 129 191 268 92 139 176
258 185 266 8 7 23 11 31 7 13 -5 15 -87 15 -678 0 -593 2 -676 16 -696 l15
-22 439 0 c426 0 440 1 450 20 7 13 10 470 8 1473 -3 1381 -4 1454 -21 1480
-10 16 -32 37 -50 47 -30 19 -52 20 -362 20 -364 0 -377 -2 -437 -66 -15 -16
-163 -249 -331 -519 -217 -350 -309 -491 -323 -493 -11 -2 -27 5 -36 15 -9 10
-147 230 -307 488 -160 259 -308 489 -329 512 -24 25 -55 46 -78 52 -24 7
-163 11 -364 11 -305 0 -327 -1 -357 -20z"/>
<path d="M8859 7751 l-24 -19 -3 -1459 c-1 -802 0 -1468 3 -1480 3 -12 15 -32
27 -43 21 -19 34 -20 454 -20 410 0 433 1 455 19 l24 19 3 1476 2 1477 -24 24
-25 25 -434 0 c-413 0 -436 -1 -458 -19z"/>
<path d="M7731 4400 c-376 -31 -590 -160 -670 -403 -20 -61 -521 -2584 -521
-2625 0 -53 -5 -52 486 -52 l456 0 27 28 c18 18 30 43 35 72 3 25 20 134 38
243 l31 197 312 0 313 0 5 -22 c3 -13 20 -113 37 -223 17 -110 36 -215 41
-232 20 -65 7 -63 502 -63 290 0 455 4 468 10 13 8 19 21 19 47 0 33 -476
2470 -501 2568 -24 90 -81 189 -148 255 -104 103 -224 156 -414 184 -130 19
-382 27 -516 16z m225 -795 c10 -25 161 -979 157 -987 -2 -5 -87 -8 -189 -8
-149 0 -184 3 -184 14 0 36 152 961 161 977 12 23 47 25 55 4z"/>
<path d="M12469 4400 c-630 -61 -1006 -404 -1117 -1020 -14 -80 -17 -163 -17
-540 0 -419 1 -452 22 -561 79 -411 300 -716 627 -870 186 -87 376 -123 646
-123 210 0 316 13 480 61 427 123 708 463 798 963 14 80 17 164 17 535 0 387
-2 452 -19 540 -25 139 -59 249 -105 349 -168 363 -452 575 -866 646 -131 22
-347 32 -466 20z m307 -875 c90 -44 129 -106 161 -255 15 -73 18 -132 17 -430
0 -369 -7 -439 -55 -550 -92 -215 -446 -214 -538 1 -43 100 -52 170 -58 464
-10 491 23 664 144 749 89 62 227 71 329 21z"/>
<path d="M15090 4399 c-213 -8 -463 -26 -565 -40 -215 -29 -275 -83 -296 -265
-6 -55 -8 -589 -7 -1407 l3 -1319 28 -24 28 -24 430 0 430 0 24 26 25 27 0
499 0 499 66 -3 67 -3 260 -513 c206 -407 265 -516 284 -523 13 -5 230 -9 481
-9 398 0 460 2 480 16 49 34 41 53 -264 628 -254 479 -285 541 -270 551 151
91 228 160 300 269 60 89 106 195 133 302 27 108 24 445 -5 579 -100 467 -436
690 -1107 735 -165 11 -248 11 -525 -1z m547 -814 c108 -32 143 -89 143 -235
0 -106 -16 -155 -66 -202 -59 -55 -91 -62 -316 -66 l-208 -4 0 261 0 261 198
0 c147 0 211 -4 249 -15z"/>
<path d="M3920 4357 c-17 -8 -26 -22 -28 -42 -1 -17 112 -610 253 -1320 247
-1255 255 -1292 294 -1370 87 -176 239 -274 496 -321 138 -25 535 -26 677 -1
279 49 442 168 527 385 22 54 521 2567 521 2618 0 62 23 59 -467 62 -314 2
-455 -1 -474 -9 -15 -6 -34 -25 -42 -42 -8 -18 -94 -527 -191 -1132 -134 -836
-180 -1103 -192 -1112 -18 -14 -40 -8 -48 13 -3 8 -85 506 -181 1107 -97 600
-181 1105 -187 1120 -22 56 -27 57 -500 57 -328 0 -439 -3 -458 -13z"/>
<path d="M9500 4363 c-8 -3 -25 -15 -37 -26 l-23 -20 0 -1101 c0 -927 2 -1117
15 -1201 26 -174 68 -278 166 -408 124 -164 313 -265 576 -304 225 -34 866
-15 980 28 66 25 63 8 63 384 l0 342 -23 21 c-23 22 -28 22 -350 22 -198 0
-346 4 -377 11 -93 20 -84 -84 -90 1141 -5 1017 -6 1078 -23 1095 -16 17 -49
18 -440 20 -232 1 -429 -1 -437 -4z"/>
<path d="M650 4319 c-134 -24 -252 -112 -308 -230 -44 -94 -52 -149 -52 -359
0 -210 8 -265 52 -359 81 -171 254 -254 498 -237 135 9 209 25 221 47 5 11 8
56 7 102 l-3 82 -186 0 c-184 0 -185 0 -226 27 -26 17 -49 44 -64 75 -23 46
-24 57 -24 263 0 206 1 217 24 263 15 31 38 58 64 75 41 27 42 27 226 27 l186
0 3 82 c1 46 -2 91 -7 101 -7 13 -30 23 -68 31 -81 16 -277 22 -343 10z"/>
<path d="M1560 4319 c-163 -27 -294 -142 -351 -309 -30 -88 -39 -385 -15 -498
56 -267 275 -412 563 -374 199 27 329 140 390 337 26 88 26 422 0 510 -79 258
-296 382 -587 334z m222 -252 c84 -47 118 -143 118 -337 0 -197 -33 -290 -122
-340 -57 -32 -145 -32 -206 -1 -52 26 -96 92 -111 162 -6 28 -11 108 -11 179
0 152 11 212 50 273 58 91 183 120 282 64z"/>
<path d="M2860 4323 c-67 -10 -121 -27 -182 -58 l-67 -34 -3 37 -3 37 -114 3
c-75 2 -118 -1 -127 -9 -20 -16 -21 -1106 -1 -1132 11 -15 28 -17 132 -15
l120 3 3 432 2 433 48 24 c117 60 252 72 311 28 55 -40 56 -43 61 -497 l5
-420 119 -3 c78 -2 123 1 132 9 12 9 14 77 14 378 0 393 -8 509 -41 597 -25
65 -77 127 -129 154 -63 32 -190 47 -280 33z"/>
<path d="M4656 755 c-53 -19 -106 -63 -141 -120 -26 -41 -30 -58 -33 -139 -4
-87 -3 -94 30 -156 52 -100 137 -150 259 -150 123 0 215 54 266 158 53 109 32
254 -50 341 -53 56 -119 81 -212 80 -44 0 -97 -6 -119 -14z m220 -64 c154 -70
167 -314 22 -404 -157 -97 -358 13 -358 198 0 86 68 189 140 212 56 18 150 15
196 -6z"/>
<path d="M5433 751 c-105 -49 -110 -188 -9 -245 22 -13 79 -36 125 -52 92 -31
141 -70 141 -110 0 -39 -16 -60 -60 -78 -69 -28 -154 -18 -262 29 -15 6 -18 2
-18 -24 0 -29 5 -34 48 -53 57 -26 179 -35 239 -19 89 24 135 98 113 180 -15
58 -63 94 -174 131 -117 39 -156 68 -156 116 0 39 26 70 66 80 41 10 156 -1
192 -20 l32 -17 0 34 c0 46 -31 59 -145 64 -74 3 -98 0 -132 -16z"/>
<path d="M5985 747 c-104 -51 -158 -142 -158 -267 0 -120 49 -206 147 -258 45
-24 62 -27 146 -27 84 0 101 3 146 27 99 52 144 136 144 267 0 87 -22 146 -73
199 -55 58 -101 75 -207 79 -84 4 -101 1 -145 -20z m264 -70 c120 -80 134
-267 26 -366 -123 -114 -330 -59 -375 100 -34 117 24 243 130 288 14 6 60 9
102 8 63 -3 84 -8 117 -30z"/>
<path d="M7082 740 c-49 -25 -71 -44 -97 -84 -111 -167 -38 -400 143 -452 132
-39 274 3 339 100 43 62 56 114 51 201 -5 107 -49 181 -138 233 -38 23 -59 27
-140 30 -90 3 -98 2 -158 -28z m255 -55 c174 -87 154 -360 -30 -421 -93 -31
-209 0 -260 68 -68 92 -63 233 11 312 65 69 186 87 279 41z"/>
<path d="M9086 755 c-125 -44 -193 -155 -184 -299 7 -111 57 -186 158 -237 61
-30 167 -37 243 -15 55 16 57 18 57 50 l0 34 -52 -20 c-105 -40 -245 -2 -302
81 -80 117 -38 278 87 337 61 28 157 32 214 9 46 -20 45 -20 41 18 -2 27 -9
34 -38 44 -48 16 -176 15 -224 -2z"/>
<path d="M10567 756 c-114 -41 -177 -141 -177 -281 0 -63 5 -82 33 -137 51
-98 137 -148 258 -148 177 0 292 114 293 290 0 60 -5 86 -25 130 -52 111 -134
160 -264 159 -44 0 -97 -6 -118 -13z m219 -65 c154 -70 167 -314 22 -404 -60
-37 -137 -46 -206 -23 -88 30 -152 124 -152 224 0 83 69 186 140 209 56 18
150 15 196 -6z"/>
<path d="M11137 750 c-102 -56 -102 -197 0 -248 21 -11 68 -29 105 -41 79 -26
127 -56 148 -94 13 -24 13 -30 0 -54 -36 -65 -142 -80 -262 -39 l-68 23 0 -33
c0 -33 2 -34 70 -55 53 -16 89 -20 143 -17 129 7 187 55 187 154 0 83 -45 122
-202 173 -37 12 -79 32 -93 43 -55 43 -52 104 6 134 41 21 169 15 217 -10 l32
-17 0 34 c0 46 -31 59 -150 64 -81 3 -101 0 -133 -17z"/>
<path d="M12525 754 c-180 -64 -236 -337 -98 -479 73 -75 202 -104 319 -70 47
13 69 27 111 70 64 66 88 135 80 232 -9 119 -76 211 -180 250 -44 16 -184 14
-232 -3z m220 -63 c184 -85 163 -381 -31 -430 -93 -24 -168 -6 -230 54 -117
112 -81 315 66 379 49 21 146 20 195 -3z"/>
<path d="M14560 739 c-102 -52 -148 -131 -149 -259 -1 -121 52 -209 158 -262
38 -19 62 -23 141 -23 115 1 160 18 160 64 l0 28 -52 -18 c-105 -36 -212 -15
-282 54 -89 90 -88 226 3 317 28 27 62 50 87 58 55 16 139 15 189 -3 22 -8 41
-15 43 -15 2 0 2 14 0 32 -4 41 -44 56 -154 57 -71 1 -88 -3 -144 -30z"/>
<path d="M16363 757 c-104 -39 -171 -131 -180 -250 -8 -97 16 -166 80 -232 64
-66 133 -90 236 -83 175 13 279 132 269 308 -7 125 -73 219 -177 255 -52 18
-182 19 -228 2z m205 -63 c81 -33 135 -114 136 -204 2 -168 -132 -271 -298
-229 -194 49 -215 345 -31 430 50 23 142 25 193 3z"/>
<path d="M16935 751 c-95 -43 -110 -159 -30 -229 20 -18 71 -42 129 -62 111
-37 156 -71 156 -119 0 -87 -153 -120 -285 -62 l-45 20 0 -33 c0 -30 4 -36 43
-51 53 -22 179 -31 234 -16 124 34 161 168 69 248 -19 18 -73 44 -131 63 -56
20 -109 45 -126 61 -37 35 -39 77 -3 110 36 34 147 39 222 11 l52 -20 0 34 c0
31 -3 34 -52 49 -72 21 -183 19 -233 -4z"/>
<path d="M3890 480 l0 -280 30 0 30 0 0 220 c0 121 4 220 8 220 4 0 82 -99
172 -219 155 -206 167 -220 198 -220 l32 -1 0 280 0 280 -30 0 -30 0 0 -220
c0 -121 -3 -220 -7 -220 -5 1 -82 100 -173 220 -156 207 -167 220 -197 220
l-33 0 0 -280z"/>
<path d="M6530 480 l0 -280 190 0 190 0 0 30 0 29 -157 3 -158 3 -3 248 -2
247 -30 0 -30 0 0 -280z"/>
<path d="M7840 480 l0 -282 148 4 c135 4 151 6 197 30 96 50 138 125 138 248
0 120 -46 204 -138 253 -35 19 -60 22 -192 25 l-153 4 0 -282z m284 208 c137
-42 183 -244 80 -358 -46 -50 -105 -70 -211 -70 l-83 0 0 220 0 220 86 0 c48
0 105 -6 128 -12z"/>
<path d="M8440 480 l0 -280 195 0 195 0 0 30 0 30 -160 0 -160 0 0 95 0 95
145 0 145 0 0 30 0 30 -145 0 -145 0 0 95 0 95 155 0 155 0 0 30 0 30 -190 0
-190 0 0 -280z"/>
<path d="M9470 480 l0 -280 30 0 30 0 0 280 0 280 -30 0 -30 0 0 -280z"/>
<path d="M9690 480 l0 -280 30 0 30 0 2 218 3 217 103 -152 c70 -105 108 -153
121 -153 12 0 49 47 117 150 54 82 102 150 107 150 4 0 7 -97 7 -215 l0 -215
30 0 30 0 0 280 0 280 -30 0 c-28 0 -38 -13 -142 -170 -62 -93 -116 -170 -119
-170 -3 0 -57 77 -119 170 -102 154 -116 170 -141 170 l-29 0 0 -280z"/>
<path d="M11950 480 l0 -280 190 0 190 0 0 30 0 30 -160 0 -160 0 0 250 0 250
-30 0 -30 0 0 -280z"/>
<path d="M13260 480 l0 -280 30 0 30 0 0 125 0 125 170 0 170 0 0 -125 0 -125
35 0 35 0 0 280 0 280 -35 0 -35 0 0 -125 0 -125 -167 2 -168 3 -3 123 -3 122
-29 0 -30 0 0 -280z"/>
<path d="M14052 743 c-18 -35 -232 -529 -232 -536 0 -4 15 -7 34 -7 32 0 35 3
56 57 13 32 28 64 33 71 7 9 47 12 159 10 l150 -3 27 -65 c27 -62 29 -65 65
-68 21 -2 36 0 34 5 -3 4 -58 131 -123 281 l-118 272 -38 0 c-26 0 -41 -5 -47
-17z m113 -201 c31 -74 54 -136 52 -138 -2 -3 -58 -3 -124 -2 l-120 3 60 143
c33 79 63 139 68 135 4 -4 32 -68 64 -141z"/>
<path d="M14980 480 l0 -280 190 0 190 0 0 30 0 30 -160 0 -160 0 0 95 0 95
145 0 145 0 0 30 0 29 -142 3 -143 3 -3 93 -3 92 161 0 160 0 0 30 0 30 -190
0 -190 0 0 -280z"/>
<path d="M15480 480 l0 -280 30 0 30 0 0 215 c0 118 3 215 8 215 4 0 52 -68
106 -150 76 -115 104 -150 120 -150 16 0 45 37 121 152 l100 151 3 -216 2
-217 30 0 30 0 0 280 0 280 -29 0 c-25 0 -39 -16 -141 -170 -62 -93 -116 -170
-119 -170 -3 0 -57 77 -119 170 -104 157 -114 170 -142 170 l-30 0 0 -280z"/>
<path d="M17337 263 c-4 -3 -7 -19 -7 -34 0 -22 6 -30 25 -35 43 -11 73 34 43
64 -13 13 -50 16 -61 5z"/>
<path d="M11540 218 c-6 -24 -15 -59 -21 -78 -13 -52 -11 -60 14 -60 20 0 26
11 50 83 15 46 27 86 27 90 0 4 -13 7 -30 7 -26 0 -30 -5 -40 -42z"/>
</g>
</svg>
